
<global>
amp_veltrack=0
interval_mode=staffpad
master-volume=12.0
xf_cccurve=gain
xfin_hicc1=127
xfout_hicc1=127
xfout_locc1=127
</global>

<group>
group_label=PP
seq_length=1
seq_position=1

<region>
end=120000
hivel=0
key=A#2
lovel=0
sample=Basses_Mmm_legato_repeat_PP_A#2.opus
tune=-28
</region>

<region>
end=120000
hivel=0
key=A#3
lovel=0
sample=Basses_Mmm_legato_repeat_PP_A#3.opus
tune=-18
</region>

<region>
end=120000
hivel=0
key=A2
lovel=0
sample=Basses_Mmm_legato_repeat_PP_A2.opus
tune=-28
</region>

<region>
end=120000
hivel=0
key=A3
lovel=0
sample=Basses_Mmm_legato_repeat_PP_A3.opus
tune=-34
</region>

<region>
end=120000
hivel=0
key=B2
lovel=0
sample=Basses_Mmm_legato_repeat_PP_B2.opus
tune=-12
</region>

<region>
end=120000
hivel=0
key=B3
lovel=0
sample=Basses_Mmm_legato_repeat_PP_B3.opus
tune=-27
</region>

<region>
end=120000
hivel=0
key=C#3
lovel=0
sample=Basses_Mmm_legato_repeat_PP_C#3.opus
tune=-14
</region>

<region>
end=120000
hivel=0
key=C#4
lovel=0
sample=Basses_Mmm_legato_repeat_PP_C#4.opus
tune=-7
</region>

<region>
end=120000
hivel=0
key=C3
lovel=0
sample=Basses_Mmm_legato_repeat_PP_C3.opus
tune=-20
</region>

<region>
end=120000
hikey=C4
hivel=0
lokey=C4
lovel=0
sample=Basses_Mmm_legato_repeat_PP_C4.opus
tune=+2
</region>

<region>
end=120000
hivel=0
key=D#2
lovel=0
sample=Basses_Mmm_legato_repeat_PP_D#2.opus
tune=-4
</region>

<region>
end=120000
hivel=0
key=D#3
lovel=0
sample=Basses_Mmm_legato_repeat_PP_D#3.opus
tune=-23
</region>

<region>
end=120000
hivel=0
key=D#4
lovel=0
sample=Basses_Mmm_legato_repeat_PP_D#4.opus
tune=-18
</region>

<region>
end=120000
hikey=D2
hivel=0
lokey=G1
lovel=0
pitch_keycenter=D2
sample=Basses_Mmm_legato_repeat_PP_D2.opus
tune=-14
</region>

<region>
end=120000
hivel=0
key=D3
lovel=0
sample=Basses_Mmm_legato_repeat_PP_D3.opus
tune=-20
</region>

<region>
end=120000
hivel=0
key=D4
lovel=0
sample=Basses_Mmm_legato_repeat_PP_D4.opus
tune=-12
</region>

<region>
end=120000
hivel=0
key=E2
lovel=0
sample=Basses_Mmm_legato_repeat_PP_E2.opus
</region>

<region>
end=120000
hivel=0
key=E3
lovel=0
sample=Basses_Mmm_legato_repeat_PP_E3.opus
tune=-28
</region>

<region>
end=120000
hivel=0
key=E4
lovel=0
sample=Basses_Mmm_legato_repeat_PP_E4.opus
tune=-17
</region>

<region>
end=120000
hivel=0
key=F#2
lovel=0
sample=Basses_Mmm_legato_repeat_PP_F#2.opus
tune=-15
</region>

<region>
end=120000
hivel=0
key=F#3
lovel=0
sample=Basses_Mmm_legato_repeat_PP_F#3.opus
tune=-18
</region>

<region>
end=120000
hivel=0
key=F2
lovel=0
sample=Basses_Mmm_legato_repeat_PP_F2.opus
tune=-15
</region>

<region>
end=120000
hivel=0
key=F3
lovel=0
sample=Basses_Mmm_legato_repeat_PP_F3.opus
tune=-34
</region>

<region>
end=120000
hivel=0
key=G#2
lovel=0
sample=Basses_Mmm_legato_repeat_PP_G#2.opus
tune=-18
</region>

<region>
end=120000
hivel=0
key=G#3
lovel=0
sample=Basses_Mmm_legato_repeat_PP_G#3.opus
tune=-23
</region>

<region>
end=120000
hivel=0
key=G2
lovel=0
sample=Basses_Mmm_legato_repeat_PP_G2.opus
tune=-12
</region>

<region>
end=120000
hivel=0
key=G3
lovel=0
sample=Basses_Mmm_legato_repeat_PP_G3.opus
tune=-32
</region>

<region>
end=120000
hivel=13
interval_point=73728
key=A#2
lovel=13
post_interval_tune=-27
pre_interval_tune=-16
sample=Basses_Mmm_slurred_legato_PP_A#2_-1.opus
</region>

<region>
end=120000
hivel=14
interval_point=72192
key=A#2
lovel=14
post_interval_tune=-12
pre_interval_tune=-14
sample=Basses_Mmm_slurred_legato_PP_A#2_-2.opus
</region>

<region>
end=120000
hivel=15
interval_point=72704
key=A#2
lovel=15
post_interval_tune=-18
pre_interval_tune=-18
sample=Basses_Mmm_slurred_legato_PP_A#2_-3.opus
</region>

<region>
end=120000
hivel=16
interval_point=71680
key=A#2
lovel=16
post_interval_tune=-12
pre_interval_tune=-10
sample=Basses_Mmm_slurred_legato_PP_A#2_-4.opus
</region>

<region>
end=120000
hivel=17
interval_point=66048
key=A#2
lovel=17
post_interval_tune=-21
pre_interval_tune=-14
sample=Basses_Mmm_slurred_legato_PP_A#2_-5.opus
</region>

<region>
end=120000
hivel=18
interval_point=74752
key=A#2
lovel=18
post_interval_tune=-17
pre_interval_tune=-15
sample=Basses_Mmm_slurred_legato_PP_A#2_-6.opus
</region>

<region>
end=120000
hivel=19
interval_point=66048
key=A#2
lovel=19
post_interval_tune=-10
pre_interval_tune=-17
sample=Basses_Mmm_slurred_legato_PP_A#2_-7.opus
</region>

<region>
end=120000
hivel=20
interval_point=70144
key=A#2
lovel=20
post_interval_tune=-13
pre_interval_tune=-23
sample=Basses_Mmm_slurred_legato_PP_A#2_-8.opus
</region>

<region>
end=120000
hivel=21
interval_point=68608
key=A#2
lovel=21
post_interval_tune=-22
pre_interval_tune=-18
sample=Basses_Mmm_slurred_legato_PP_A#2_-9.opus
</region>

<region>
end=120000
hivel=22
interval_point=69120
key=A#2
lovel=22
post_interval_tune=-23
pre_interval_tune=-24
sample=Basses_Mmm_slurred_legato_PP_A#2_-10.opus
</region>

<region>
end=120000
hivel=23
interval_point=68608
key=A#2
lovel=23
post_interval_tune=-24
pre_interval_tune=-18
sample=Basses_Mmm_slurred_legato_PP_A#2_-11.opus
</region>

<region>
end=120000
hivel=24
interval_point=75776
key=A#2
lovel=24
post_interval_tune=-23
pre_interval_tune=-28
sample=Basses_Mmm_slurred_legato_PP_A#2_-12.opus
</region>

<region>
end=132799
hivel=1
interval_point=71168
key=A#2
lovel=1
post_interval_tune=-14
pre_interval_tune=-6
sample=Basses_Mmm_slurred_legato_PP_A#2_+1.opus
</region>

<region>
end=132799
hivel=2
interval_point=69632
key=A#2
lovel=2
post_interval_tune=-16
pre_interval_tune=-3
sample=Basses_Mmm_slurred_legato_PP_A#2_+2.opus
</region>

<region>
end=132799
hivel=3
interval_point=74752
key=A#2
lovel=3
post_interval_tune=-15
pre_interval_tune=+3
sample=Basses_Mmm_slurred_legato_PP_A#2_+3.opus
</region>

<region>
end=132799
hivel=4
interval_point=79360
key=A#2
lovel=4
post_interval_tune=-18
pre_interval_tune=0
sample=Basses_Mmm_slurred_legato_PP_A#2_+4.opus
</region>

<region>
end=132799
hivel=5
interval_point=75264
key=A#2
lovel=5
post_interval_tune=-11
pre_interval_tune=-7
sample=Basses_Mmm_slurred_legato_PP_A#2_+5.opus
</region>

<region>
end=132799
hivel=6
interval_point=74240
key=A#2
lovel=6
post_interval_tune=-22
pre_interval_tune=-6
sample=Basses_Mmm_slurred_legato_PP_A#2_+6.opus
</region>

<region>
end=132799
hivel=7
interval_point=75776
key=A#2
lovel=7
post_interval_tune=-17
pre_interval_tune=+1
sample=Basses_Mmm_slurred_legato_PP_A#2_+7.opus
</region>

<region>
end=132799
hivel=8
interval_point=72192
key=A#2
lovel=8
post_interval_tune=-22
pre_interval_tune=0
sample=Basses_Mmm_slurred_legato_PP_A#2_+8.opus
</region>

<region>
end=132799
hivel=9
interval_point=74752
key=A#2
lovel=9
post_interval_tune=-9
pre_interval_tune=-8
sample=Basses_Mmm_slurred_legato_PP_A#2_+9.opus
</region>

<region>
end=132799
hivel=10
interval_point=73728
key=A#2
lovel=10
post_interval_tune=-19
pre_interval_tune=-13
sample=Basses_Mmm_slurred_legato_PP_A#2_+10.opus
</region>

<region>
end=132799
hivel=11
interval_point=72192
key=A#2
lovel=11
post_interval_tune=-23
pre_interval_tune=-14
sample=Basses_Mmm_slurred_legato_PP_A#2_+11.opus
</region>

<region>
end=132799
hivel=12
interval_point=77824
key=A#2
lovel=12
post_interval_tune=-22
pre_interval_tune=-30
sample=Basses_Mmm_slurred_legato_PP_A#2_+12.opus
</region>

<region>
end=120000
hivel=13
interval_point=75264
key=A#3
lovel=13
post_interval_tune=-26
pre_interval_tune=-12
sample=Basses_Mmm_slurred_legato_PP_A#3_-1.opus
</region>

<region>
end=120000
hivel=14
interval_point=68096
key=A#3
lovel=14
post_interval_tune=-37
pre_interval_tune=-18
sample=Basses_Mmm_slurred_legato_PP_A#3_-2.opus
</region>

<region>
end=120000
hivel=15
interval_point=66048
key=A#3
lovel=15
post_interval_tune=-30
pre_interval_tune=-27
sample=Basses_Mmm_slurred_legato_PP_A#3_-3.opus
</region>

<region>
end=120000
hivel=16
interval_point=69120
key=A#3
lovel=16
post_interval_tune=-35
pre_interval_tune=-19
sample=Basses_Mmm_slurred_legato_PP_A#3_-4.opus
</region>

<region>
end=120000
hivel=17
interval_point=67584
key=A#3
lovel=17
post_interval_tune=-45
pre_interval_tune=-29
sample=Basses_Mmm_slurred_legato_PP_A#3_-5.opus
</region>

<region>
end=120000
hivel=18
interval_point=65024
key=A#3
lovel=18
post_interval_tune=-28
pre_interval_tune=-25
sample=Basses_Mmm_slurred_legato_PP_A#3_-6.opus
</region>

<region>
end=132799
hivel=1
interval_point=76800
key=A#3
lovel=1
post_interval_tune=-9
pre_interval_tune=-15
sample=Basses_Mmm_slurred_legato_PP_A#3_+1.opus
</region>

<region>
end=132799
hivel=2
interval_point=80384
key=A#3
lovel=2
post_interval_tune=-19
pre_interval_tune=-20
sample=Basses_Mmm_slurred_legato_PP_A#3_+2.opus
</region>

<region>
end=132799
hivel=3
interval_point=78336
key=A#3
lovel=3
post_interval_tune=-28
pre_interval_tune=-37
sample=Basses_Mmm_slurred_legato_PP_A#3_+3.opus
</region>

<region>
end=132799
hivel=4
interval_point=79360
key=A#3
lovel=4
post_interval_tune=-9
pre_interval_tune=-31
sample=Basses_Mmm_slurred_legato_PP_A#3_+4.opus
</region>

<region>
end=132799
hivel=5
interval_point=80896
key=A#3
lovel=5
post_interval_tune=-24
pre_interval_tune=-33
sample=Basses_Mmm_slurred_legato_PP_A#3_+5.opus
</region>

<region>
end=132799
hivel=6
interval_point=77824
key=A#3
lovel=6
post_interval_tune=-21
pre_interval_tune=-26
sample=Basses_Mmm_slurred_legato_PP_A#3_+6.opus
</region>

<region>
end=120000
hivel=13
interval_point=69120
key=A2
lovel=13
post_interval_tune=-30
pre_interval_tune=-25
sample=Basses_Mmm_slurred_legato_PP_A2_-1.opus
</region>

<region>
end=120000
hivel=14
interval_point=73216
key=A2
lovel=14
post_interval_tune=-17
pre_interval_tune=-4
sample=Basses_Mmm_slurred_legato_PP_A2_-2.opus
</region>

<region>
end=120000
hivel=15
interval_point=74240
key=A2
lovel=15
post_interval_tune=-20
pre_interval_tune=-18
sample=Basses_Mmm_slurred_legato_PP_A2_-3.opus
</region>

<region>
end=120000
hivel=16
interval_point=75264
key=A2
lovel=16
post_interval_tune=-22
pre_interval_tune=-12
sample=Basses_Mmm_slurred_legato_PP_A2_-4.opus
</region>

<region>
end=120000
hivel=17
interval_point=73728
key=A2
lovel=17
post_interval_tune=-4
pre_interval_tune=-19
sample=Basses_Mmm_slurred_legato_PP_A2_-5.opus
</region>

<region>
end=120000
hivel=18
interval_point=73216
key=A2
lovel=18
post_interval_tune=-26
pre_interval_tune=-17
sample=Basses_Mmm_slurred_legato_PP_A2_-6.opus
</region>

<region>
end=120000
hivel=19
interval_point=71680
key=A2
lovel=19
post_interval_tune=-22
pre_interval_tune=-19
sample=Basses_Mmm_slurred_legato_PP_A2_-7.opus
</region>

<region>
end=120000
hivel=20
interval_point=75776
key=A2
lovel=20
post_interval_tune=-16
pre_interval_tune=-16
sample=Basses_Mmm_slurred_legato_PP_A2_-8.opus
</region>

<region>
end=120000
hivel=21
interval_point=79872
key=A2
lovel=21
post_interval_tune=-32
pre_interval_tune=-13
sample=Basses_Mmm_slurred_legato_PP_A2_-9.opus
</region>

<region>
end=120000
hivel=22
interval_point=74240
key=A2
lovel=22
post_interval_tune=-21
pre_interval_tune=-20
sample=Basses_Mmm_slurred_legato_PP_A2_-10.opus
</region>

<region>
end=120000
hivel=23
interval_point=71680
key=A2
lovel=23
post_interval_tune=-20
pre_interval_tune=-5
sample=Basses_Mmm_slurred_legato_PP_A2_-11.opus
</region>

<region>
end=120000
hivel=24
interval_point=66048
key=A2
lovel=24
post_interval_tune=-29
pre_interval_tune=-32
sample=Basses_Mmm_slurred_legato_PP_A2_-12.opus
</region>

<region>
end=132799
hivel=1
interval_point=72192
key=A2
lovel=1
post_interval_tune=-26
pre_interval_tune=-18
sample=Basses_Mmm_slurred_legato_PP_A2_+1.opus
</region>

<region>
end=132799
hivel=2
interval_point=75264
key=A2
lovel=2
post_interval_tune=-12
pre_interval_tune=-11
sample=Basses_Mmm_slurred_legato_PP_A2_+2.opus
</region>

<region>
end=132799
hivel=3
interval_point=74752
key=A2
lovel=3
post_interval_tune=-10
pre_interval_tune=-5
sample=Basses_Mmm_slurred_legato_PP_A2_+3.opus
</region>

<region>
end=132799
hivel=4
interval_point=76288
key=A2
lovel=4
post_interval_tune=-25
pre_interval_tune=-7
sample=Basses_Mmm_slurred_legato_PP_A2_+4.opus
</region>

<region>
end=132799
hivel=5
interval_point=73216
key=A2
lovel=5
post_interval_tune=-15
pre_interval_tune=-24
sample=Basses_Mmm_slurred_legato_PP_A2_+5.opus
</region>

<region>
end=132799
hivel=6
interval_point=76800
key=A2
lovel=6
post_interval_tune=-21
pre_interval_tune=-20
sample=Basses_Mmm_slurred_legato_PP_A2_+6.opus
</region>

<region>
end=132799
hivel=7
interval_point=82432
key=A2
lovel=7
post_interval_tune=-19
pre_interval_tune=-8
sample=Basses_Mmm_slurred_legato_PP_A2_+7.opus
</region>

<region>
end=132799
hivel=8
interval_point=74752
key=A2
lovel=8
post_interval_tune=-24
pre_interval_tune=-11
sample=Basses_Mmm_slurred_legato_PP_A2_+8.opus
</region>

<region>
end=132799
hivel=9
interval_point=71168
key=A2
lovel=9
post_interval_tune=-20
pre_interval_tune=-6
sample=Basses_Mmm_slurred_legato_PP_A2_+9.opus
</region>

<region>
end=132799
hivel=10
interval_point=72704
key=A2
lovel=10
post_interval_tune=-3
pre_interval_tune=-26
sample=Basses_Mmm_slurred_legato_PP_A2_+10.opus
</region>

<region>
end=132799
hivel=11
interval_point=72192
key=A2
lovel=11
post_interval_tune=-8
pre_interval_tune=-21
sample=Basses_Mmm_slurred_legato_PP_A2_+11.opus
</region>

<region>
end=132799
hivel=12
interval_point=76800
key=A2
lovel=12
post_interval_tune=-34
pre_interval_tune=-16
sample=Basses_Mmm_slurred_legato_PP_A2_+12.opus
</region>

<region>
end=120000
hivel=13
interval_point=67072
key=A3
lovel=13
post_interval_tune=-26
pre_interval_tune=-23
sample=Basses_Mmm_slurred_legato_PP_A3_-1.opus
</region>

<region>
end=120000
hivel=14
interval_point=70144
key=A3
lovel=14
post_interval_tune=-31
pre_interval_tune=-8
sample=Basses_Mmm_slurred_legato_PP_A3_-2.opus
</region>

<region>
end=120000
hivel=15
interval_point=71168
key=A3
lovel=15
post_interval_tune=-30
pre_interval_tune=-26
sample=Basses_Mmm_slurred_legato_PP_A3_-3.opus
</region>

<region>
end=120000
hivel=16
interval_point=66048
key=A3
lovel=16
post_interval_tune=-33
pre_interval_tune=-27
sample=Basses_Mmm_slurred_legato_PP_A3_-4.opus
</region>

<region>
end=120000
hivel=17
interval_point=67072
key=A3
lovel=17
post_interval_tune=-28
pre_interval_tune=-35
sample=Basses_Mmm_slurred_legato_PP_A3_-5.opus
</region>

<region>
end=120000
hivel=18
interval_point=67072
key=A3
lovel=18
post_interval_tune=-29
pre_interval_tune=-28
sample=Basses_Mmm_slurred_legato_PP_A3_-6.opus
</region>

<region>
end=120000
hivel=19
interval_point=66048
key=A3
lovel=19
post_interval_tune=-41
pre_interval_tune=-24
sample=Basses_Mmm_slurred_legato_PP_A3_-7.opus
</region>

<region>
end=132799
hivel=1
interval_point=74240
key=A3
lovel=1
post_interval_tune=-22
pre_interval_tune=-39
sample=Basses_Mmm_slurred_legato_PP_A3_+1.opus
</region>

<region>
end=132799
hivel=2
interval_point=72192
key=A3
lovel=2
post_interval_tune=-1
pre_interval_tune=-23
sample=Basses_Mmm_slurred_legato_PP_A3_+2.opus
</region>

<region>
end=132799
hivel=3
interval_point=68608
key=A3
lovel=3
post_interval_tune=-22
pre_interval_tune=-18
sample=Basses_Mmm_slurred_legato_PP_A3_+3.opus
</region>

<region>
end=132799
hivel=4
interval_point=72704
key=A3
lovel=4
post_interval_tune=-28
pre_interval_tune=-25
sample=Basses_Mmm_slurred_legato_PP_A3_+4.opus
</region>

<region>
end=132799
hivel=5
interval_point=74240
key=A3
lovel=5
post_interval_tune=-32
pre_interval_tune=-37
sample=Basses_Mmm_slurred_legato_PP_A3_+5.opus
</region>

<region>
end=132799
hivel=6
interval_point=77824
key=A3
lovel=6
post_interval_tune=-25
pre_interval_tune=-35
sample=Basses_Mmm_slurred_legato_PP_A3_+6.opus
</region>

<region>
end=132799
hivel=7
interval_point=72192
key=A3
lovel=7
post_interval_tune=-18
pre_interval_tune=-38
sample=Basses_Mmm_slurred_legato_PP_A3_+7.opus
</region>

<region>
end=120000
hivel=13
interval_point=74240
key=B2
lovel=13
post_interval_tune=-20
pre_interval_tune=-20
sample=Basses_Mmm_slurred_legato_PP_B2_-1.opus
</region>

<region>
end=120000
hivel=14
interval_point=66048
key=B2
lovel=14
post_interval_tune=-13
pre_interval_tune=-6
sample=Basses_Mmm_slurred_legato_PP_B2_-2.opus
</region>

<region>
end=120000
hivel=15
interval_point=70656
key=B2
lovel=15
post_interval_tune=-9
pre_interval_tune=-16
sample=Basses_Mmm_slurred_legato_PP_B2_-3.opus
</region>

<region>
end=120000
hivel=16
interval_point=71680
key=B2
lovel=16
post_interval_tune=-10
pre_interval_tune=-10
sample=Basses_Mmm_slurred_legato_PP_B2_-4.opus
</region>

<region>
end=120000
hivel=17
interval_point=68096
key=B2
lovel=17
post_interval_tune=-6
pre_interval_tune=-16
sample=Basses_Mmm_slurred_legato_PP_B2_-5.opus
</region>

<region>
end=120000
hivel=18
interval_point=73728
key=B2
lovel=18
post_interval_tune=0
pre_interval_tune=-14
sample=Basses_Mmm_slurred_legato_PP_B2_-6.opus
</region>

<region>
end=120000
hivel=19
interval_point=72704
key=B2
lovel=19
post_interval_tune=-1
pre_interval_tune=-19
sample=Basses_Mmm_slurred_legato_PP_B2_-7.opus
</region>

<region>
end=120000
hivel=20
interval_point=69632
key=B2
lovel=20
post_interval_tune=-7
pre_interval_tune=-25
sample=Basses_Mmm_slurred_legato_PP_B2_-8.opus
</region>

<region>
end=120000
hivel=21
interval_point=73216
key=B2
lovel=21
post_interval_tune=-10
pre_interval_tune=-15
sample=Basses_Mmm_slurred_legato_PP_B2_-9.opus
</region>

<region>
end=120000
hivel=22
interval_point=70656
key=B2
lovel=22
post_interval_tune=+9
pre_interval_tune=-32
sample=Basses_Mmm_slurred_legato_PP_B2_-10.opus
</region>

<region>
end=120000
hivel=23
interval_point=69632
key=B2
lovel=23
post_interval_tune=-10
pre_interval_tune=-15
sample=Basses_Mmm_slurred_legato_PP_B2_-11.opus
</region>

<region>
end=120000
hivel=24
interval_point=67584
key=B2
lovel=24
post_interval_tune=-2
pre_interval_tune=-16
sample=Basses_Mmm_slurred_legato_PP_B2_-12.opus
</region>

<region>
end=132799
hivel=1
interval_point=74240
key=B2
lovel=1
post_interval_tune=-17
pre_interval_tune=-17
sample=Basses_Mmm_slurred_legato_PP_B2_+1.opus
</region>

<region>
end=132799
hivel=2
interval_point=82944
key=B2
lovel=2
post_interval_tune=-14
pre_interval_tune=-10
sample=Basses_Mmm_slurred_legato_PP_B2_+2.opus
</region>

<region>
end=132799
hivel=3
interval_point=76288
key=B2
lovel=3
post_interval_tune=-10
pre_interval_tune=+2
sample=Basses_Mmm_slurred_legato_PP_B2_+3.opus
</region>

<region>
end=132799
hivel=4
interval_point=74752
key=B2
lovel=4
post_interval_tune=-14
pre_interval_tune=+5
sample=Basses_Mmm_slurred_legato_PP_B2_+4.opus
</region>

<region>
end=132799
hivel=5
interval_point=74752
key=B2
lovel=5
post_interval_tune=-16
pre_interval_tune=-10
sample=Basses_Mmm_slurred_legato_PP_B2_+5.opus
</region>

<region>
end=132799
hivel=6
interval_point=71168
key=B2
lovel=6
post_interval_tune=-18
pre_interval_tune=+5
sample=Basses_Mmm_slurred_legato_PP_B2_+6.opus
</region>

<region>
end=132799
hivel=7
interval_point=72704
key=B2
lovel=7
post_interval_tune=-17
pre_interval_tune=+6
sample=Basses_Mmm_slurred_legato_PP_B2_+7.opus
</region>

<region>
end=132799
hivel=8
interval_point=72704
key=B2
lovel=8
post_interval_tune=-19
pre_interval_tune=-3
sample=Basses_Mmm_slurred_legato_PP_B2_+8.opus
</region>

<region>
end=132799
hivel=9
interval_point=73728
key=B2
lovel=9
post_interval_tune=-17
pre_interval_tune=-8
sample=Basses_Mmm_slurred_legato_PP_B2_+9.opus
</region>

<region>
end=132799
hivel=10
interval_point=74240
key=B2
lovel=10
post_interval_tune=-15
pre_interval_tune=0
sample=Basses_Mmm_slurred_legato_PP_B2_+10.opus
</region>

<region>
end=132799
hivel=11
interval_point=72192
key=B2
lovel=11
post_interval_tune=-28
pre_interval_tune=-5
sample=Basses_Mmm_slurred_legato_PP_B2_+11.opus
</region>

<region>
end=132799
hivel=12
interval_point=76288
key=B2
lovel=12
post_interval_tune=-8
pre_interval_tune=+14
sample=Basses_Mmm_slurred_legato_PP_B2_+12.opus
</region>

<region>
end=120000
hivel=13
interval_point=66560
key=B3
lovel=13
post_interval_tune=-27
pre_interval_tune=-19
sample=Basses_Mmm_slurred_legato_PP_B3_-1.opus
</region>

<region>
end=120000
hivel=14
interval_point=73728
key=B3
lovel=14
post_interval_tune=-25
pre_interval_tune=-20
sample=Basses_Mmm_slurred_legato_PP_B3_-2.opus
</region>

<region>
end=120000
hivel=15
interval_point=71680
key=B3
lovel=15
post_interval_tune=-17
pre_interval_tune=-23
sample=Basses_Mmm_slurred_legato_PP_B3_-3.opus
</region>

<region>
end=120000
hivel=16
interval_point=65536
key=B3
lovel=16
post_interval_tune=-26
pre_interval_tune=-19
sample=Basses_Mmm_slurred_legato_PP_B3_-4.opus
</region>

<region>
end=120000
hivel=17
interval_point=68096
key=B3
lovel=17
post_interval_tune=-29
pre_interval_tune=-12
sample=Basses_Mmm_slurred_legato_PP_B3_-5.opus
</region>

<region>
end=132799
hivel=1
interval_point=69120
key=B3
lovel=1
post_interval_tune=-10
pre_interval_tune=-15
sample=Basses_Mmm_slurred_legato_PP_B3_+1.opus
</region>

<region>
end=132670
hivel=2
interval_point=77312
key=B3
lovel=2
post_interval_tune=-21
pre_interval_tune=-20
sample=Basses_Mmm_slurred_legato_PP_B3_+2.opus
</region>

<region>
end=132799
hivel=3
interval_point=71168
key=B3
lovel=3
post_interval_tune=-20
pre_interval_tune=-19
sample=Basses_Mmm_slurred_legato_PP_B3_+3.opus
</region>

<region>
end=132799
hivel=4
interval_point=76800
key=B3
lovel=4
post_interval_tune=-21
pre_interval_tune=-21
sample=Basses_Mmm_slurred_legato_PP_B3_+4.opus
</region>

<region>
end=132799
hivel=5
interval_point=72192
key=B3
lovel=5
post_interval_tune=-6
pre_interval_tune=-15
sample=Basses_Mmm_slurred_legato_PP_B3_+5.opus
</region>

<region>
end=120000
hivel=13
interval_point=67072
key=C#3
lovel=13
post_interval_tune=-21
pre_interval_tune=-17
sample=Basses_Mmm_slurred_legato_PP_C#3_-1.opus
</region>

<region>
end=120000
hivel=14
interval_point=69120
key=C#3
lovel=14
post_interval_tune=-11
pre_interval_tune=-13
sample=Basses_Mmm_slurred_legato_PP_C#3_-2.opus
</region>

<region>
end=120000
hivel=15
interval_point=68608
key=C#3
lovel=15
post_interval_tune=-13
pre_interval_tune=-11
sample=Basses_Mmm_slurred_legato_PP_C#3_-3.opus
</region>

<region>
end=120000
hivel=16
interval_point=72704
key=C#3
lovel=16
post_interval_tune=-2
pre_interval_tune=-5
sample=Basses_Mmm_slurred_legato_PP_C#3_-4.opus
</region>

<region>
end=120000
hivel=17
interval_point=75776
key=C#3
lovel=17
post_interval_tune=-18
pre_interval_tune=-25
sample=Basses_Mmm_slurred_legato_PP_C#3_-5.opus
</region>

<region>
end=120000
hivel=18
interval_point=77312
key=C#3
lovel=18
post_interval_tune=-14
pre_interval_tune=-21
sample=Basses_Mmm_slurred_legato_PP_C#3_-6.opus
</region>

<region>
end=120000
hivel=19
interval_point=68608
key=C#3
lovel=19
post_interval_tune=-19
pre_interval_tune=-28
sample=Basses_Mmm_slurred_legato_PP_C#3_-7.opus
</region>

<region>
end=120000
hivel=20
interval_point=76288
key=C#3
lovel=20
post_interval_tune=-17
pre_interval_tune=-13
sample=Basses_Mmm_slurred_legato_PP_C#3_-8.opus
</region>

<region>
end=120000
hivel=21
interval_point=76288
key=C#3
lovel=21
post_interval_tune=-25
pre_interval_tune=-19
sample=Basses_Mmm_slurred_legato_PP_C#3_-9.opus
</region>

<region>
end=120000
hivel=22
interval_point=76800
key=C#3
lovel=22
post_interval_tune=-22
pre_interval_tune=-8
sample=Basses_Mmm_slurred_legato_PP_C#3_-10.opus
</region>

<region>
end=120000
hivel=23
interval_point=66560
key=C#3
lovel=23
post_interval_tune=-18
pre_interval_tune=-27
sample=Basses_Mmm_slurred_legato_PP_C#3_-11.opus
</region>

<region>
end=120000
hivel=24
interval_point=65536
key=C#3
lovel=24
post_interval_tune=-14
pre_interval_tune=-18
sample=Basses_Mmm_slurred_legato_PP_C#3_-12.opus
</region>

<region>
end=132799
hivel=1
interval_point=80384
key=C#3
lovel=1
post_interval_tune=-8
pre_interval_tune=-3
sample=Basses_Mmm_slurred_legato_PP_C#3_+1.opus
</region>

<region>
end=132799
hivel=2
interval_point=78336
key=C#3
lovel=2
post_interval_tune=-17
pre_interval_tune=-6
sample=Basses_Mmm_slurred_legato_PP_C#3_+2.opus
</region>

<region>
end=132799
hivel=3
interval_point=78848
key=C#3
lovel=3
post_interval_tune=-17
pre_interval_tune=-5
sample=Basses_Mmm_slurred_legato_PP_C#3_+3.opus
</region>

<region>
end=132799
hivel=4
interval_point=75264
key=C#3
lovel=4
post_interval_tune=-6
pre_interval_tune=+2
sample=Basses_Mmm_slurred_legato_PP_C#3_+4.opus
</region>

<region>
end=132799
hivel=5
interval_point=72704
key=C#3
lovel=5
post_interval_tune=-31
pre_interval_tune=+2
sample=Basses_Mmm_slurred_legato_PP_C#3_+5.opus
</region>

<region>
end=132799
hivel=6
interval_point=74240
key=C#3
lovel=6
post_interval_tune=-13
pre_interval_tune=+6
sample=Basses_Mmm_slurred_legato_PP_C#3_+6.opus
</region>

<region>
end=132799
hivel=7
interval_point=72192
key=C#3
lovel=7
post_interval_tune=-17
pre_interval_tune=+3
sample=Basses_Mmm_slurred_legato_PP_C#3_+7.opus
</region>

<region>
end=132799
hivel=8
interval_point=75776
key=C#3
lovel=8
post_interval_tune=-7
pre_interval_tune=-18
sample=Basses_Mmm_slurred_legato_PP_C#3_+8.opus
</region>

<region>
end=132799
hivel=9
interval_point=76288
key=C#3
lovel=9
post_interval_tune=-19
pre_interval_tune=-17
sample=Basses_Mmm_slurred_legato_PP_C#3_+9.opus
</region>

<region>
end=132799
hivel=10
interval_point=71680
key=C#3
lovel=10
post_interval_tune=-17
pre_interval_tune=-15
sample=Basses_Mmm_slurred_legato_PP_C#3_+10.opus
</region>

<region>
end=132799
hivel=11
interval_point=73728
key=C#3
lovel=11
post_interval_tune=-24
pre_interval_tune=-15
sample=Basses_Mmm_slurred_legato_PP_C#3_+11.opus
</region>

<region>
end=131133
hivel=12
interval_point=78848
key=C#3
lovel=12
post_interval_tune=-16
pre_interval_tune=-4
sample=Basses_Mmm_slurred_legato_PP_C#3_+12.opus
</region>

<region>
end=120000
hivel=13
interval_point=68608
key=C#4
lovel=13
post_interval_tune=-25
pre_interval_tune=-12
sample=Basses_Mmm_slurred_legato_PP_C#4_-1.opus
</region>

<region>
end=120000
hivel=14
interval_point=69632
key=C#4
lovel=14
post_interval_tune=-26
pre_interval_tune=-16
sample=Basses_Mmm_slurred_legato_PP_C#4_-2.opus
</region>

<region>
end=120000
hivel=15
interval_point=77312
key=C#4
lovel=15
post_interval_tune=-16
pre_interval_tune=-13
sample=Basses_Mmm_slurred_legato_PP_C#4_-3.opus
</region>

<region>
end=132799
hivel=1
interval_point=68096
key=C#4
lovel=1
post_interval_tune=-13
pre_interval_tune=-13
sample=Basses_Mmm_slurred_legato_PP_C#4_+1.opus
</region>

<region>
end=132799
hivel=2
interval_point=75264
key=C#4
lovel=2
post_interval_tune=-12
pre_interval_tune=-15
sample=Basses_Mmm_slurred_legato_PP_C#4_+2.opus
</region>

<region>
end=132799
hivel=3
interval_point=77312
key=C#4
lovel=3
post_interval_tune=-13
pre_interval_tune=-10
sample=Basses_Mmm_slurred_legato_PP_C#4_+3.opus
</region>

<region>
end=120000
hivel=13
interval_point=75776
key=C3
lovel=13
post_interval_tune=-30
pre_interval_tune=-32
sample=Basses_Mmm_slurred_legato_PP_C3_-1.opus
</region>

<region>
end=120000
hivel=14
interval_point=72704
key=C3
lovel=14
post_interval_tune=-23
pre_interval_tune=-27
sample=Basses_Mmm_slurred_legato_PP_C3_-2.opus
</region>

<region>
end=120000
hivel=15
interval_point=69120
key=C3
lovel=15
post_interval_tune=-9
pre_interval_tune=-26
sample=Basses_Mmm_slurred_legato_PP_C3_-3.opus
</region>

<region>
end=120000
hivel=16
interval_point=70144
key=C3
lovel=16
post_interval_tune=-18
pre_interval_tune=-13
sample=Basses_Mmm_slurred_legato_PP_C3_-4.opus
</region>

<region>
end=120000
hivel=17
interval_point=66048
key=C3
lovel=17
post_interval_tune=-1
pre_interval_tune=-17
sample=Basses_Mmm_slurred_legato_PP_C3_-5.opus
</region>

<region>
end=120000
hivel=18
interval_point=70144
key=C3
lovel=18
post_interval_tune=-15
pre_interval_tune=-12
sample=Basses_Mmm_slurred_legato_PP_C3_-6.opus
</region>

<region>
end=120000
hivel=19
interval_point=72192
key=C3
lovel=19
post_interval_tune=-9
pre_interval_tune=-17
sample=Basses_Mmm_slurred_legato_PP_C3_-7.opus
</region>

<region>
end=120000
hivel=20
interval_point=76288
key=C3
lovel=20
post_interval_tune=-13
pre_interval_tune=-16
sample=Basses_Mmm_slurred_legato_PP_C3_-8.opus
</region>

<region>
end=120000
hivel=21
interval_point=68608
key=C3
lovel=21
post_interval_tune=-18
pre_interval_tune=-29
sample=Basses_Mmm_slurred_legato_PP_C3_-9.opus
</region>

<region>
end=120000
hivel=22
interval_point=72192
key=C3
lovel=22
post_interval_tune=-10
pre_interval_tune=-15
sample=Basses_Mmm_slurred_legato_PP_C3_-10.opus
</region>

<region>
end=120000
hivel=23
interval_point=69632
key=C3
lovel=23
post_interval_tune=-16
pre_interval_tune=-16
sample=Basses_Mmm_slurred_legato_PP_C3_-11.opus
</region>

<region>
end=120000
hivel=24
interval_point=69120
key=C3
lovel=24
post_interval_tune=-7
pre_interval_tune=-23
sample=Basses_Mmm_slurred_legato_PP_C3_-12.opus
</region>

<region>
end=132799
hivel=1
interval_point=77312
key=C3
lovel=1
post_interval_tune=-27
pre_interval_tune=-9
sample=Basses_Mmm_slurred_legato_PP_C3_+1.opus
</region>

<region>
end=132799
hivel=2
interval_point=74240
key=C3
lovel=2
post_interval_tune=-31
pre_interval_tune=-16
sample=Basses_Mmm_slurred_legato_PP_C3_+2.opus
</region>

<region>
end=132799
hivel=3
interval_point=72704
key=C3
lovel=3
post_interval_tune=-29
pre_interval_tune=-15
sample=Basses_Mmm_slurred_legato_PP_C3_+3.opus
</region>

<region>
end=132799
hivel=4
interval_point=77312
key=C3
lovel=4
post_interval_tune=-9
pre_interval_tune=-11
sample=Basses_Mmm_slurred_legato_PP_C3_+4.opus
</region>

<region>
end=132799
hivel=5
interval_point=75264
key=C3
lovel=5
post_interval_tune=-13
pre_interval_tune=-1
sample=Basses_Mmm_slurred_legato_PP_C3_+5.opus
</region>

<region>
end=132799
hivel=6
interval_point=76288
key=C3
lovel=6
post_interval_tune=-15
pre_interval_tune=-11
sample=Basses_Mmm_slurred_legato_PP_C3_+6.opus
</region>

<region>
end=132799
hivel=7
interval_point=74240
key=C3
lovel=7
post_interval_tune=-23
pre_interval_tune=-6
sample=Basses_Mmm_slurred_legato_PP_C3_+7.opus
</region>

<region>
end=132799
hivel=8
interval_point=74752
key=C3
lovel=8
post_interval_tune=-16
pre_interval_tune=+1
sample=Basses_Mmm_slurred_legato_PP_C3_+8.opus
</region>

<region>
end=132799
hivel=9
interval_point=77824
key=C3
lovel=9
post_interval_tune=-26
pre_interval_tune=-12
sample=Basses_Mmm_slurred_legato_PP_C3_+9.opus
</region>

<region>
end=132799
hivel=10
interval_point=70656
key=C3
lovel=10
post_interval_tune=-3
pre_interval_tune=-15
sample=Basses_Mmm_slurred_legato_PP_C3_+10.opus
</region>

<region>
end=132799
hivel=11
interval_point=66048
key=C3
lovel=11
post_interval_tune=-14
pre_interval_tune=-14
sample=Basses_Mmm_slurred_legato_PP_C3_+11.opus
</region>

<region>
end=132799
hivel=12
interval_point=71168
key=C3
lovel=12
post_interval_tune=-25
pre_interval_tune=-19
sample=Basses_Mmm_slurred_legato_PP_C3_+12.opus
</region>

<region>
end=120000
hikey=C4
hivel=13
interval_point=70144
lokey=C4
lovel=13
post_interval_tune=-7
pre_interval_tune=+2
sample=Basses_Mmm_slurred_legato_PP_C4_-1.opus
</region>

<region>
end=120000
hikey=C4
hivel=14
interval_point=69120
lokey=C4
lovel=14
post_interval_tune=-15
pre_interval_tune=-10
sample=Basses_Mmm_slurred_legato_PP_C4_-2.opus
</region>

<region>
end=120000
hikey=C4
hivel=15
interval_point=71168
lokey=C4
lovel=15
post_interval_tune=-13
pre_interval_tune=-24
sample=Basses_Mmm_slurred_legato_PP_C4_-3.opus
</region>

<region>
end=120000
hikey=C4
hivel=16
interval_point=67584
lokey=C4
lovel=16
post_interval_tune=-6
pre_interval_tune=-10
sample=Basses_Mmm_slurred_legato_PP_C4_-4.opus
</region>

<region>
end=132799
hikey=C4
hivel=1
interval_point=78848
lokey=C4
lovel=1
post_interval_tune=-9
pre_interval_tune=-6
sample=Basses_Mmm_slurred_legato_PP_C4_+1.opus
</region>

<region>
end=132799
hikey=C4
hivel=2
interval_point=82432
lokey=C4
lovel=2
post_interval_tune=-8
pre_interval_tune=-12
sample=Basses_Mmm_slurred_legato_PP_C4_+2.opus
</region>

<region>
end=132799
hikey=C4
hivel=3
interval_point=79872
lokey=C4
lovel=3
post_interval_tune=-23
pre_interval_tune=-11
sample=Basses_Mmm_slurred_legato_PP_C4_+3.opus
</region>

<region>
end=132799
hikey=C4
hivel=4
interval_point=81408
lokey=C4
lovel=4
post_interval_tune=-4
pre_interval_tune=-7
sample=Basses_Mmm_slurred_legato_PP_C4_+4.opus
</region>

<region>
end=120000
hivel=13
interval_point=67584
key=D#2
lovel=13
post_interval_tune=-5
pre_interval_tune=-10
sample=Basses_Mmm_slurred_legato_PP_D#2_-1.opus
</region>

<region>
end=120000
hivel=14
interval_point=69120
key=D#2
lovel=14
post_interval_tune=-6
pre_interval_tune=+8
sample=Basses_Mmm_slurred_legato_PP_D#2_-2.opus
</region>

<region>
end=120000
hivel=15
interval_point=73728
key=D#2
lovel=15
post_interval_tune=-1
pre_interval_tune=+1
sample=Basses_Mmm_slurred_legato_PP_D#2_-3.opus
</region>

<region>
end=120000
hivel=16
interval_point=73728
key=D#2
lovel=16
post_interval_tune=+8
pre_interval_tune=+2
sample=Basses_Mmm_slurred_legato_PP_D#2_-4.opus
</region>

<region>
end=120000
hivel=17
interval_point=69632
key=D#2
lovel=17
post_interval_tune=+4
pre_interval_tune=-2
sample=Basses_Mmm_slurred_legato_PP_D#2_-5.opus
</region>

<region>
end=120000
hivel=18
interval_point=72192
key=D#2
lovel=18
post_interval_tune=+12
pre_interval_tune=+4
sample=Basses_Mmm_slurred_legato_PP_D#2_-6.opus
</region>

<region>
end=120000
hivel=19
interval_point=68608
key=D#2
lovel=19
post_interval_tune=0
pre_interval_tune=-6
sample=Basses_Mmm_slurred_legato_PP_D#2_-7.opus
</region>

<region>
end=120000
hivel=20
interval_point=76800
key=D#2
lovel=20
post_interval_tune=-5
pre_interval_tune=+1
sample=Basses_Mmm_slurred_legato_PP_D#2_-8.opus
</region>

<region>
end=120000
hivel=21
interval_point=73216
key=D#2
lovel=21
post_interval_tune=-14
pre_interval_tune=-10
sample=Basses_Mmm_slurred_legato_PP_D#2_-9.opus
</region>

<region>
end=120000
hivel=22
interval_point=68608
key=D#2
lovel=22
post_interval_tune=-9
pre_interval_tune=+2
sample=Basses_Mmm_slurred_legato_PP_D#2_-10.opus
</region>

<region>
end=120000
hivel=23
interval_point=70656
key=D#2
lovel=23
post_interval_tune=+6
pre_interval_tune=-4
sample=Basses_Mmm_slurred_legato_PP_D#2_-11.opus
</region>

<region>
end=120000
hivel=24
interval_point=68096
key=D#2
lovel=24
post_interval_tune=-7
pre_interval_tune=-6
sample=Basses_Mmm_slurred_legato_PP_D#2_-12.opus
</region>

<region>
end=132349
hivel=1
interval_point=72192
key=D#2
lovel=1
post_interval_tune=-13
pre_interval_tune=-16
sample=Basses_Mmm_slurred_legato_PP_D#2_+1.opus
</region>

<region>
end=132799
hivel=2
interval_point=74240
key=D#2
lovel=2
post_interval_tune=0
pre_interval_tune=+8
sample=Basses_Mmm_slurred_legato_PP_D#2_+2.opus
</region>

<region>
end=132799
hivel=3
interval_point=69632
key=D#2
lovel=3
post_interval_tune=-5
pre_interval_tune=+4
sample=Basses_Mmm_slurred_legato_PP_D#2_+3.opus
</region>

<region>
end=132799
hivel=4
interval_point=74752
key=D#2
lovel=4
post_interval_tune=+1
pre_interval_tune=+2
sample=Basses_Mmm_slurred_legato_PP_D#2_+4.opus
</region>

<region>
end=132799
hivel=5
interval_point=74752
key=D#2
lovel=5
post_interval_tune=-1
pre_interval_tune=+15
sample=Basses_Mmm_slurred_legato_PP_D#2_+5.opus
</region>

<region>
end=132799
hivel=6
interval_point=74752
key=D#2
lovel=6
post_interval_tune=-24
pre_interval_tune=+2
sample=Basses_Mmm_slurred_legato_PP_D#2_+6.opus
</region>

<region>
end=132799
hivel=7
interval_point=73216
key=D#2
lovel=7
post_interval_tune=-10
pre_interval_tune=+5
sample=Basses_Mmm_slurred_legato_PP_D#2_+7.opus
</region>

<region>
end=132743
hivel=8
interval_point=74240
key=D#2
lovel=8
post_interval_tune=-5
pre_interval_tune=+12
sample=Basses_Mmm_slurred_legato_PP_D#2_+8.opus
</region>

<region>
end=132799
hivel=9
interval_point=72192
key=D#2
lovel=9
post_interval_tune=-13
pre_interval_tune=-11
sample=Basses_Mmm_slurred_legato_PP_D#2_+9.opus
</region>

<region>
end=132799
hivel=10
interval_point=74752
key=D#2
lovel=10
post_interval_tune=+11
pre_interval_tune=+2
sample=Basses_Mmm_slurred_legato_PP_D#2_+10.opus
</region>

<region>
end=132799
hivel=11
interval_point=77824
key=D#2
lovel=11
post_interval_tune=-7
pre_interval_tune=-5
sample=Basses_Mmm_slurred_legato_PP_D#2_+11.opus
</region>

<region>
end=132799
hivel=12
interval_point=71680
key=D#2
lovel=12
post_interval_tune=-4
pre_interval_tune=-2
sample=Basses_Mmm_slurred_legato_PP_D#2_+12.opus
</region>

<region>
end=120000
hivel=13
interval_point=70144
key=D#3
lovel=13
post_interval_tune=-27
pre_interval_tune=-22
sample=Basses_Mmm_slurred_legato_PP_D#3_-1.opus
</region>

<region>
end=120000
hivel=14
interval_point=69632
key=D#3
lovel=14
post_interval_tune=-16
pre_interval_tune=-10
sample=Basses_Mmm_slurred_legato_PP_D#3_-2.opus
</region>

<region>
end=120000
hivel=15
interval_point=69120
key=D#3
lovel=15
post_interval_tune=-23
pre_interval_tune=-20
sample=Basses_Mmm_slurred_legato_PP_D#3_-3.opus
</region>

<region>
end=120000
hivel=16
interval_point=73728
key=D#3
lovel=16
post_interval_tune=-25
pre_interval_tune=-4
sample=Basses_Mmm_slurred_legato_PP_D#3_-4.opus
</region>

<region>
end=120000
hivel=17
interval_point=72192
key=D#3
lovel=17
post_interval_tune=-22
pre_interval_tune=-22
sample=Basses_Mmm_slurred_legato_PP_D#3_-5.opus
</region>

<region>
end=120000
hivel=18
interval_point=70144
key=D#3
lovel=18
post_interval_tune=-21
pre_interval_tune=-32
sample=Basses_Mmm_slurred_legato_PP_D#3_-6.opus
</region>

<region>
end=120000
hivel=19
interval_point=71680
key=D#3
lovel=19
post_interval_tune=-19
pre_interval_tune=-19
sample=Basses_Mmm_slurred_legato_PP_D#3_-7.opus
</region>

<region>
end=120000
hivel=20
interval_point=66048
key=D#3
lovel=20
post_interval_tune=-11
pre_interval_tune=-13
sample=Basses_Mmm_slurred_legato_PP_D#3_-8.opus
</region>

<region>
end=120000
hivel=21
interval_point=67072
key=D#3
lovel=21
post_interval_tune=-18
pre_interval_tune=-15
sample=Basses_Mmm_slurred_legato_PP_D#3_-9.opus
</region>

<region>
end=120000
hivel=22
interval_point=72192
key=D#3
lovel=22
post_interval_tune=-12
pre_interval_tune=-11
sample=Basses_Mmm_slurred_legato_PP_D#3_-10.opus
</region>

<region>
end=120000
hivel=23
interval_point=69632
key=D#3
lovel=23
post_interval_tune=-16
pre_interval_tune=-15
sample=Basses_Mmm_slurred_legato_PP_D#3_-11.opus
</region>

<region>
end=120000
hivel=24
interval_point=64512
key=D#3
lovel=24
post_interval_tune=-14
pre_interval_tune=-29
sample=Basses_Mmm_slurred_legato_PP_D#3_-12.opus
</region>

<region>
end=132799
hivel=1
interval_point=77312
key=D#3
lovel=1
post_interval_tune=-22
pre_interval_tune=-16
sample=Basses_Mmm_slurred_legato_PP_D#3_+1.opus
</region>

<region>
end=132799
hivel=2
interval_point=76288
key=D#3
lovel=2
post_interval_tune=-15
pre_interval_tune=-13
sample=Basses_Mmm_slurred_legato_PP_D#3_+2.opus
</region>

<region>
end=132799
hivel=3
interval_point=75776
key=D#3
lovel=3
post_interval_tune=-17
pre_interval_tune=-7
sample=Basses_Mmm_slurred_legato_PP_D#3_+3.opus
</region>

<region>
end=132799
hivel=4
interval_point=72192
key=D#3
lovel=4
post_interval_tune=-15
pre_interval_tune=-11
sample=Basses_Mmm_slurred_legato_PP_D#3_+4.opus
</region>

<region>
end=132799
hivel=5
interval_point=75264
key=D#3
lovel=5
post_interval_tune=-21
pre_interval_tune=-14
sample=Basses_Mmm_slurred_legato_PP_D#3_+5.opus
</region>

<region>
end=132799
hivel=6
interval_point=78848
key=D#3
lovel=6
post_interval_tune=-33
pre_interval_tune=-12
sample=Basses_Mmm_slurred_legato_PP_D#3_+6.opus
</region>

<region>
end=132799
hivel=7
interval_point=69632
key=D#3
lovel=7
post_interval_tune=-24
pre_interval_tune=-17
sample=Basses_Mmm_slurred_legato_PP_D#3_+7.opus
</region>

<region>
end=132799
hivel=8
interval_point=70144
key=D#3
lovel=8
post_interval_tune=-20
pre_interval_tune=-11
sample=Basses_Mmm_slurred_legato_PP_D#3_+8.opus
</region>

<region>
end=132799
hivel=9
interval_point=74240
key=D#3
lovel=9
post_interval_tune=-14
pre_interval_tune=-16
sample=Basses_Mmm_slurred_legato_PP_D#3_+9.opus
</region>

<region>
end=132799
hivel=10
interval_point=75264
key=D#3
lovel=10
post_interval_tune=-22
pre_interval_tune=-8
sample=Basses_Mmm_slurred_legato_PP_D#3_+10.opus
</region>

<region>
end=132799
hivel=11
interval_point=79360
key=D#3
lovel=11
post_interval_tune=-24
pre_interval_tune=+8
sample=Basses_Mmm_slurred_legato_PP_D#3_+11.opus
</region>

<region>
end=132799
hivel=12
interval_point=76288
key=D#3
lovel=12
post_interval_tune=-23
pre_interval_tune=-8
sample=Basses_Mmm_slurred_legato_PP_D#3_+12.opus
</region>

<region>
end=120000
hivel=13
interval_point=73216
key=D#4
lovel=13
post_interval_tune=-25
pre_interval_tune=-5
sample=Basses_Mmm_slurred_legato_PP_D#4_-1.opus
</region>

<region>
end=132799
hivel=1
interval_point=72192
key=D#4
lovel=1
post_interval_tune=-14
pre_interval_tune=-19
sample=Basses_Mmm_slurred_legato_PP_D#4_+1.opus
</region>

<region>
end=120000
hikey=D2
hivel=13
interval_point=68608
lokey=G1
lovel=13
pitch_keycenter=D2
post_interval_tune=+10
pre_interval_tune=-5
sample=Basses_Mmm_slurred_legato_PP_D2_-1.opus
</region>

<region>
end=120000
hikey=D2
hivel=14
interval_point=73728
lokey=G1
lovel=14
pitch_keycenter=D2
post_interval_tune=-2
pre_interval_tune=+17
sample=Basses_Mmm_slurred_legato_PP_D2_-2.opus
</region>

<region>
end=120000
hikey=D2
hivel=15
interval_point=71680
lokey=G1
lovel=15
pitch_keycenter=D2
post_interval_tune=-1
pre_interval_tune=+2
sample=Basses_Mmm_slurred_legato_PP_D2_-3.opus
</region>

<region>
end=120000
hikey=D2
hivel=16
interval_point=75776
lokey=G1
lovel=16
pitch_keycenter=D2
post_interval_tune=-1
pre_interval_tune=-8
sample=Basses_Mmm_slurred_legato_PP_D2_-4.opus
</region>

<region>
end=120000
hikey=D2
hivel=17
interval_point=66048
lokey=G1
lovel=17
pitch_keycenter=D2
post_interval_tune=-9
pre_interval_tune=+11
sample=Basses_Mmm_slurred_legato_PP_D2_-5.opus
</region>

<region>
end=120000
hikey=D2
hivel=18
interval_point=67072
lokey=G1
lovel=18
pitch_keycenter=D2
post_interval_tune=-4
pre_interval_tune=+8
sample=Basses_Mmm_slurred_legato_PP_D2_-6.opus
</region>

<region>
end=120000
hikey=D2
hivel=19
interval_point=65536
lokey=G1
lovel=19
pitch_keycenter=D2
post_interval_tune=+16
pre_interval_tune=0
sample=Basses_Mmm_slurred_legato_PP_D2_-7.opus
</region>

<region>
end=120000
hikey=D2
hivel=20
interval_point=72192
lokey=G1
lovel=20
pitch_keycenter=D2
post_interval_tune=-6
pre_interval_tune=+10
sample=Basses_Mmm_slurred_legato_PP_D2_-8.opus
</region>

<region>
end=120000
hikey=D2
hivel=21
interval_point=73728
lokey=G1
lovel=21
pitch_keycenter=D2
post_interval_tune=-25
pre_interval_tune=+15
sample=Basses_Mmm_slurred_legato_PP_D2_-9.opus
</region>

<region>
end=120000
hikey=D2
hivel=22
interval_point=73728
lokey=G1
lovel=22
pitch_keycenter=D2
post_interval_tune=-36
pre_interval_tune=0
sample=Basses_Mmm_slurred_legato_PP_D2_-10.opus
</region>

<region>
end=120000
hikey=D2
hivel=23
interval_point=71168
lokey=G1
lovel=23
pitch_keycenter=D2
post_interval_tune=-15
pre_interval_tune=+1
sample=Basses_Mmm_slurred_legato_PP_D2_-11.opus
</region>

<region>
end=120000
hikey=D2
hivel=24
interval_point=67584
lokey=G1
lovel=24
pitch_keycenter=D2
post_interval_tune=-2
pre_interval_tune=-5
sample=Basses_Mmm_slurred_legato_PP_D2_-12.opus
</region>

<region>
end=132799
hikey=D2
hivel=1
interval_point=83456
lokey=G1
lovel=1
pitch_keycenter=D2
post_interval_tune=-20
pre_interval_tune=-24
sample=Basses_Mmm_slurred_legato_PP_D2_+1.opus
</region>

<region>
end=132799
hikey=D2
hivel=2
interval_point=71680
lokey=G1
lovel=2
pitch_keycenter=D2
post_interval_tune=-11
pre_interval_tune=+4
sample=Basses_Mmm_slurred_legato_PP_D2_+2.opus
</region>

<region>
end=132799
hikey=D2
hivel=3
interval_point=73216
lokey=G1
lovel=3
pitch_keycenter=D2
post_interval_tune=+6
pre_interval_tune=+12
sample=Basses_Mmm_slurred_legato_PP_D2_+3.opus
</region>

<region>
end=132799
hikey=D2
hivel=4
interval_point=74240
lokey=G1
lovel=4
pitch_keycenter=D2
post_interval_tune=-9
pre_interval_tune=-8
sample=Basses_Mmm_slurred_legato_PP_D2_+4.opus
</region>

<region>
end=132799
hikey=D2
hivel=5
interval_point=74240
lokey=G1
lovel=5
pitch_keycenter=D2
post_interval_tune=+5
pre_interval_tune=0
sample=Basses_Mmm_slurred_legato_PP_D2_+5.opus
</region>

<region>
end=132799
hikey=D2
hivel=6
interval_point=77824
lokey=G1
lovel=6
pitch_keycenter=D2
post_interval_tune=+3
pre_interval_tune=+11
sample=Basses_Mmm_slurred_legato_PP_D2_+6.opus
</region>

<region>
end=132799
hikey=D2
hivel=7
interval_point=74240
lokey=G1
lovel=7
pitch_keycenter=D2
post_interval_tune=-5
pre_interval_tune=-2
sample=Basses_Mmm_slurred_legato_PP_D2_+7.opus
</region>

<region>
end=132799
hikey=D2
hivel=8
interval_point=73216
lokey=G1
lovel=8
pitch_keycenter=D2
post_interval_tune=+12
pre_interval_tune=-7
sample=Basses_Mmm_slurred_legato_PP_D2_+8.opus
</region>

<region>
end=132799
hikey=D2
hivel=9
interval_point=77312
lokey=G1
lovel=9
pitch_keycenter=D2
post_interval_tune=+3
pre_interval_tune=-6
sample=Basses_Mmm_slurred_legato_PP_D2_+9.opus
</region>

<region>
end=132799
hikey=D2
hivel=10
interval_point=74240
lokey=G1
lovel=10
pitch_keycenter=D2
post_interval_tune=-2
pre_interval_tune=-19
sample=Basses_Mmm_slurred_legato_PP_D2_+10.opus
</region>

<region>
end=132799
hikey=D2
hivel=11
interval_point=76800
lokey=G1
lovel=11
pitch_keycenter=D2
post_interval_tune=0
pre_interval_tune=-17
sample=Basses_Mmm_slurred_legato_PP_D2_+11.opus
</region>

<region>
end=132799
hikey=D2
hivel=12
interval_point=73216
lokey=G1
lovel=12
pitch_keycenter=D2
post_interval_tune=-8
pre_interval_tune=-14
sample=Basses_Mmm_slurred_legato_PP_D2_+12.opus
</region>

<region>
end=120000
hivel=13
interval_point=70656
key=D3
lovel=13
post_interval_tune=-31
pre_interval_tune=-11
sample=Basses_Mmm_slurred_legato_PP_D3_-1.opus
</region>

<region>
end=120000
hivel=14
interval_point=71168
key=D3
lovel=14
post_interval_tune=-21
pre_interval_tune=-12
sample=Basses_Mmm_slurred_legato_PP_D3_-2.opus
</region>

<region>
end=120000
hivel=15
interval_point=75264
key=D3
lovel=15
post_interval_tune=-32
pre_interval_tune=-19
sample=Basses_Mmm_slurred_legato_PP_D3_-3.opus
</region>

<region>
end=120000
hivel=16
interval_point=70656
key=D3
lovel=16
post_interval_tune=-26
pre_interval_tune=-11
sample=Basses_Mmm_slurred_legato_PP_D3_-4.opus
</region>

<region>
end=120000
hivel=17
interval_point=72192
key=D3
lovel=17
post_interval_tune=-22
pre_interval_tune=-19
sample=Basses_Mmm_slurred_legato_PP_D3_-5.opus
</region>

<region>
end=120000
hivel=18
interval_point=83968
key=D3
lovel=18
post_interval_tune=-20
pre_interval_tune=-23
sample=Basses_Mmm_slurred_legato_PP_D3_-6.opus
</region>

<region>
end=120000
hivel=19
interval_point=72704
key=D3
lovel=19
post_interval_tune=-23
pre_interval_tune=-33
sample=Basses_Mmm_slurred_legato_PP_D3_-7.opus
</region>

<region>
end=120000
hivel=20
interval_point=64512
key=D3
lovel=20
post_interval_tune=-7
pre_interval_tune=-25
sample=Basses_Mmm_slurred_legato_PP_D3_-8.opus
</region>

<region>
end=120000
hivel=21
interval_point=74240
key=D3
lovel=21
post_interval_tune=-20
pre_interval_tune=-13
sample=Basses_Mmm_slurred_legato_PP_D3_-9.opus
</region>

<region>
end=120000
hivel=22
interval_point=68608
key=D3
lovel=22
post_interval_tune=-23
pre_interval_tune=-15
sample=Basses_Mmm_slurred_legato_PP_D3_-10.opus
</region>

<region>
end=120000
hivel=23
interval_point=63488
key=D3
lovel=23
post_interval_tune=-13
pre_interval_tune=-20
sample=Basses_Mmm_slurred_legato_PP_D3_-11.opus
</region>

<region>
end=120000
hivel=24
interval_point=67072
key=D3
lovel=24
post_interval_tune=-26
pre_interval_tune=-16
sample=Basses_Mmm_slurred_legato_PP_D3_-12.opus
</region>

<region>
end=132799
hivel=1
interval_point=72192
key=D3
lovel=1
post_interval_tune=-14
pre_interval_tune=-12
sample=Basses_Mmm_slurred_legato_PP_D3_+1.opus
</region>

<region>
end=132799
hivel=2
interval_point=81920
key=D3
lovel=2
post_interval_tune=-11
pre_interval_tune=-11
sample=Basses_Mmm_slurred_legato_PP_D3_+2.opus
</region>

<region>
end=132799
hivel=3
interval_point=74240
key=D3
lovel=3
post_interval_tune=-26
pre_interval_tune=-14
sample=Basses_Mmm_slurred_legato_PP_D3_+3.opus
</region>

<region>
end=132799
hivel=4
interval_point=74752
key=D3
lovel=4
post_interval_tune=-27
pre_interval_tune=-17
sample=Basses_Mmm_slurred_legato_PP_D3_+4.opus
</region>

<region>
end=132799
hivel=5
interval_point=74752
key=D3
lovel=5
post_interval_tune=-19
pre_interval_tune=-17
sample=Basses_Mmm_slurred_legato_PP_D3_+5.opus
</region>

<region>
end=132799
hivel=6
interval_point=75776
key=D3
lovel=6
post_interval_tune=-28
pre_interval_tune=-20
sample=Basses_Mmm_slurred_legato_PP_D3_+6.opus
</region>

<region>
end=132799
hivel=7
interval_point=72704
key=D3
lovel=7
post_interval_tune=-32
pre_interval_tune=-13
sample=Basses_Mmm_slurred_legato_PP_D3_+7.opus
</region>

<region>
end=132799
hivel=8
interval_point=73728
key=D3
lovel=8
post_interval_tune=-7
pre_interval_tune=-13
sample=Basses_Mmm_slurred_legato_PP_D3_+8.opus
</region>

<region>
end=132799
hivel=9
interval_point=72704
key=D3
lovel=9
post_interval_tune=-14
pre_interval_tune=-11
sample=Basses_Mmm_slurred_legato_PP_D3_+9.opus
</region>

<region>
end=132799
hivel=10
interval_point=73216
key=D3
lovel=10
post_interval_tune=-4
pre_interval_tune=-17
sample=Basses_Mmm_slurred_legato_PP_D3_+10.opus
</region>

<region>
end=132799
hivel=11
interval_point=73216
key=D3
lovel=11
post_interval_tune=-16
pre_interval_tune=-11
sample=Basses_Mmm_slurred_legato_PP_D3_+11.opus
</region>

<region>
end=132799
hivel=12
interval_point=78336
key=D3
lovel=12
post_interval_tune=-13
pre_interval_tune=-18
sample=Basses_Mmm_slurred_legato_PP_D3_+12.opus
</region>

<region>
end=120000
hivel=13
interval_point=66560
key=D4
lovel=13
post_interval_tune=-16
pre_interval_tune=-4
sample=Basses_Mmm_slurred_legato_PP_D4_-1.opus
</region>

<region>
end=120000
hivel=14
interval_point=73728
key=D4
lovel=14
post_interval_tune=-4
pre_interval_tune=-8
sample=Basses_Mmm_slurred_legato_PP_D4_-2.opus
</region>

<region>
end=132799
hivel=1
interval_point=73216
key=D4
lovel=1
post_interval_tune=-1
pre_interval_tune=-14
sample=Basses_Mmm_slurred_legato_PP_D4_+1.opus
</region>

<region>
end=132799
hivel=2
interval_point=68608
key=D4
lovel=2
post_interval_tune=-6
pre_interval_tune=-4
sample=Basses_Mmm_slurred_legato_PP_D4_+2.opus
</region>

<region>
end=120000
hivel=13
interval_point=75264
key=E2
lovel=13
post_interval_tune=-1
pre_interval_tune=-13
sample=Basses_Mmm_slurred_legato_PP_E2_-1.opus
</region>

<region>
end=120000
hivel=14
interval_point=70144
key=E2
lovel=14
post_interval_tune=-1
pre_interval_tune=-9
sample=Basses_Mmm_slurred_legato_PP_E2_-2.opus
</region>

<region>
end=120000
hivel=15
interval_point=70144
key=E2
lovel=15
post_interval_tune=-11
pre_interval_tune=-15
sample=Basses_Mmm_slurred_legato_PP_E2_-3.opus
</region>

<region>
end=120000
hivel=16
interval_point=71168
key=E2
lovel=16
post_interval_tune=+4
pre_interval_tune=-12
sample=Basses_Mmm_slurred_legato_PP_E2_-4.opus
</region>

<region>
end=120000
hivel=17
interval_point=70144
key=E2
lovel=17
post_interval_tune=+6
pre_interval_tune=-14
sample=Basses_Mmm_slurred_legato_PP_E2_-5.opus
</region>

<region>
end=120000
hivel=18
interval_point=77312
key=E2
lovel=18
post_interval_tune=-7
pre_interval_tune=-17
sample=Basses_Mmm_slurred_legato_PP_E2_-6.opus
</region>

<region>
end=120000
hivel=19
interval_point=72192
key=E2
lovel=19
post_interval_tune=0
pre_interval_tune=-21
sample=Basses_Mmm_slurred_legato_PP_E2_-7.opus
</region>

<region>
end=120000
hivel=20
interval_point=77312
key=E2
lovel=20
post_interval_tune=-6
pre_interval_tune=-15
sample=Basses_Mmm_slurred_legato_PP_E2_-8.opus
</region>

<region>
end=120000
hivel=21
interval_point=69632
key=E2
lovel=21
post_interval_tune=-9
pre_interval_tune=-9
sample=Basses_Mmm_slurred_legato_PP_E2_-9.opus
</region>

<region>
end=120000
hivel=22
interval_point=71680
key=E2
lovel=22
post_interval_tune=-5
pre_interval_tune=+3
sample=Basses_Mmm_slurred_legato_PP_E2_-10.opus
</region>

<region>
end=120000
hivel=23
interval_point=68608
key=E2
lovel=23
post_interval_tune=-20
pre_interval_tune=-3
sample=Basses_Mmm_slurred_legato_PP_E2_-11.opus
</region>

<region>
end=120000
hivel=24
interval_point=67584
key=E2
lovel=24
post_interval_tune=+2
pre_interval_tune=-26
sample=Basses_Mmm_slurred_legato_PP_E2_-12.opus
</region>

<region>
end=132799
hivel=1
interval_point=79872
key=E2
lovel=1
post_interval_tune=-9
pre_interval_tune=-4
sample=Basses_Mmm_slurred_legato_PP_E2_+1.opus
</region>

<region>
end=132799
hivel=2
interval_point=74752
key=E2
lovel=2
post_interval_tune=-9
pre_interval_tune=+7
sample=Basses_Mmm_slurred_legato_PP_E2_+2.opus
</region>

<region>
end=132799
hivel=3
interval_point=73216
key=E2
lovel=3
post_interval_tune=-10
pre_interval_tune=+4
sample=Basses_Mmm_slurred_legato_PP_E2_+3.opus
</region>

<region>
end=132799
hivel=4
interval_point=70656
key=E2
lovel=4
post_interval_tune=-15
pre_interval_tune=+13
sample=Basses_Mmm_slurred_legato_PP_E2_+4.opus
</region>

<region>
end=132799
hivel=5
interval_point=74240
key=E2
lovel=5
post_interval_tune=-5
pre_interval_tune=+3
sample=Basses_Mmm_slurred_legato_PP_E2_+5.opus
</region>

<region>
end=132799
hivel=6
interval_point=72704
key=E2
lovel=6
post_interval_tune=-25
pre_interval_tune=+10
sample=Basses_Mmm_slurred_legato_PP_E2_+6.opus
</region>

<region>
end=132799
hivel=7
interval_point=74240
key=E2
lovel=7
post_interval_tune=-12
pre_interval_tune=+2
sample=Basses_Mmm_slurred_legato_PP_E2_+7.opus
</region>

<region>
end=132799
hivel=8
interval_point=77312
key=E2
lovel=8
post_interval_tune=-10
pre_interval_tune=+9
sample=Basses_Mmm_slurred_legato_PP_E2_+8.opus
</region>

<region>
end=132799
hivel=9
interval_point=72704
key=E2
lovel=9
post_interval_tune=-4
pre_interval_tune=+13
sample=Basses_Mmm_slurred_legato_PP_E2_+9.opus
</region>

<region>
end=132799
hivel=10
interval_point=71168
key=E2
lovel=10
post_interval_tune=-1
pre_interval_tune=-24
sample=Basses_Mmm_slurred_legato_PP_E2_+10.opus
</region>

<region>
end=132799
hivel=11
interval_point=71168
key=E2
lovel=11
post_interval_tune=-3
pre_interval_tune=-8
sample=Basses_Mmm_slurred_legato_PP_E2_+11.opus
</region>

<region>
end=132799
hivel=12
interval_point=74752
key=E2
lovel=12
post_interval_tune=-28
pre_interval_tune=-7
sample=Basses_Mmm_slurred_legato_PP_E2_+12.opus
</region>

<region>
end=120000
hivel=13
interval_point=73728
key=E3
lovel=13
post_interval_tune=-26
pre_interval_tune=-14
sample=Basses_Mmm_slurred_legato_PP_E3_-1.opus
</region>

<region>
end=120000
hivel=14
interval_point=76800
key=E3
lovel=14
post_interval_tune=-33
pre_interval_tune=-9
sample=Basses_Mmm_slurred_legato_PP_E3_-2.opus
</region>

<region>
end=120000
hivel=15
interval_point=69632
key=E3
lovel=15
post_interval_tune=-23
pre_interval_tune=-6
sample=Basses_Mmm_slurred_legato_PP_E3_-3.opus
</region>

<region>
end=120000
hivel=16
interval_point=69120
key=E3
lovel=16
post_interval_tune=-29
pre_interval_tune=-13
sample=Basses_Mmm_slurred_legato_PP_E3_-4.opus
</region>

<region>
end=120000
hivel=17
interval_point=77824
key=E3
lovel=17
post_interval_tune=-33
pre_interval_tune=-18
sample=Basses_Mmm_slurred_legato_PP_E3_-5.opus
</region>

<region>
end=120000
hivel=18
interval_point=66560
key=E3
lovel=18
post_interval_tune=-26
pre_interval_tune=-10
sample=Basses_Mmm_slurred_legato_PP_E3_-6.opus
</region>

<region>
end=120000
hivel=19
interval_point=72192
key=E3
lovel=19
post_interval_tune=-33
pre_interval_tune=-7
sample=Basses_Mmm_slurred_legato_PP_E3_-7.opus
</region>

<region>
end=120000
hivel=20
interval_point=75264
key=E3
lovel=20
post_interval_tune=-22
pre_interval_tune=-15
sample=Basses_Mmm_slurred_legato_PP_E3_-8.opus
</region>

<region>
end=120000
hivel=21
interval_point=68608
key=E3
lovel=21
post_interval_tune=-23
pre_interval_tune=-17
sample=Basses_Mmm_slurred_legato_PP_E3_-9.opus
</region>

<region>
end=120000
hivel=22
interval_point=71680
key=E3
lovel=22
post_interval_tune=-31
pre_interval_tune=-2
sample=Basses_Mmm_slurred_legato_PP_E3_-10.opus
</region>

<region>
end=120000
hivel=23
interval_point=71680
key=E3
lovel=23
post_interval_tune=-25
pre_interval_tune=-19
sample=Basses_Mmm_slurred_legato_PP_E3_-11.opus
</region>

<region>
end=120000
hivel=24
interval_point=66048
key=E3
lovel=24
post_interval_tune=-22
pre_interval_tune=-17
sample=Basses_Mmm_slurred_legato_PP_E3_-12.opus
</region>

<region>
end=132799
hivel=1
interval_point=74240
key=E3
lovel=1
post_interval_tune=-5
pre_interval_tune=-19
sample=Basses_Mmm_slurred_legato_PP_E3_+1.opus
</region>

<region>
end=132799
hivel=2
interval_point=72192
key=E3
lovel=2
post_interval_tune=-7
pre_interval_tune=-15
sample=Basses_Mmm_slurred_legato_PP_E3_+2.opus
</region>

<region>
end=132799
hivel=3
interval_point=75264
key=E3
lovel=3
post_interval_tune=-8
pre_interval_tune=-15
sample=Basses_Mmm_slurred_legato_PP_E3_+3.opus
</region>

<region>
end=132799
hivel=4
interval_point=72704
key=E3
lovel=4
post_interval_tune=-12
pre_interval_tune=-6
sample=Basses_Mmm_slurred_legato_PP_E3_+4.opus
</region>

<region>
end=132799
hivel=5
interval_point=75776
key=E3
lovel=5
post_interval_tune=-24
pre_interval_tune=-29
sample=Basses_Mmm_slurred_legato_PP_E3_+5.opus
</region>

<region>
end=132799
hivel=6
interval_point=71168
key=E3
lovel=6
post_interval_tune=-3
pre_interval_tune=-16
sample=Basses_Mmm_slurred_legato_PP_E3_+6.opus
</region>

<region>
end=132799
hivel=7
interval_point=70144
key=E3
lovel=7
post_interval_tune=-9
pre_interval_tune=-17
sample=Basses_Mmm_slurred_legato_PP_E3_+7.opus
</region>

<region>
end=132799
hivel=8
interval_point=70656
key=E3
lovel=8
post_interval_tune=-8
pre_interval_tune=-26
sample=Basses_Mmm_slurred_legato_PP_E3_+8.opus
</region>

<region>
end=132799
hivel=9
interval_point=74752
key=E3
lovel=9
post_interval_tune=-19
pre_interval_tune=-19
sample=Basses_Mmm_slurred_legato_PP_E3_+9.opus
</region>

<region>
end=132799
hivel=10
interval_point=68608
key=E3
lovel=10
post_interval_tune=+5
pre_interval_tune=-17
sample=Basses_Mmm_slurred_legato_PP_E3_+10.opus
</region>

<region>
end=132799
hivel=11
interval_point=78336
key=E3
lovel=11
post_interval_tune=-4
pre_interval_tune=-15
sample=Basses_Mmm_slurred_legato_PP_E3_+11.opus
</region>

<region>
end=132799
hivel=12
interval_point=76800
key=E3
lovel=12
post_interval_tune=-8
pre_interval_tune=-23
sample=Basses_Mmm_slurred_legato_PP_E3_+12.opus
</region>

<region>
end=120000
hivel=13
interval_point=76288
key=F#2
lovel=13
post_interval_tune=-7
pre_interval_tune=+6
sample=Basses_Mmm_slurred_legato_PP_F#2_-1.opus
</region>

<region>
end=120000
hivel=14
interval_point=70656
key=F#2
lovel=14
post_interval_tune=+9
pre_interval_tune=-19
sample=Basses_Mmm_slurred_legato_PP_F#2_-2.opus
</region>

<region>
end=120000
hivel=15
interval_point=69632
key=F#2
lovel=15
post_interval_tune=+9
pre_interval_tune=-24
sample=Basses_Mmm_slurred_legato_PP_F#2_-3.opus
</region>

<region>
end=120000
hivel=16
interval_point=73216
key=F#2
lovel=16
post_interval_tune=+2
pre_interval_tune=-21
sample=Basses_Mmm_slurred_legato_PP_F#2_-4.opus
</region>

<region>
end=120000
hivel=17
interval_point=76288
key=F#2
lovel=17
post_interval_tune=+10
pre_interval_tune=-8
sample=Basses_Mmm_slurred_legato_PP_F#2_-5.opus
</region>

<region>
end=120000
hivel=18
interval_point=75776
key=F#2
lovel=18
post_interval_tune=-2
pre_interval_tune=-15
sample=Basses_Mmm_slurred_legato_PP_F#2_-6.opus
</region>

<region>
end=120000
hivel=19
interval_point=72192
key=F#2
lovel=19
post_interval_tune=-4
pre_interval_tune=-10
sample=Basses_Mmm_slurred_legato_PP_F#2_-7.opus
</region>

<region>
end=120000
hivel=20
interval_point=68608
key=F#2
lovel=20
post_interval_tune=+5
pre_interval_tune=-8
sample=Basses_Mmm_slurred_legato_PP_F#2_-8.opus
</region>

<region>
end=120000
hivel=21
interval_point=73216
key=F#2
lovel=21
post_interval_tune=-1
pre_interval_tune=-13
sample=Basses_Mmm_slurred_legato_PP_F#2_-9.opus
</region>

<region>
end=120000
hivel=22
interval_point=73216
key=F#2
lovel=22
post_interval_tune=-11
pre_interval_tune=-7
sample=Basses_Mmm_slurred_legato_PP_F#2_-10.opus
</region>

<region>
end=120000
hivel=23
interval_point=72192
key=F#2
lovel=23
post_interval_tune=-10
pre_interval_tune=-4
sample=Basses_Mmm_slurred_legato_PP_F#2_-11.opus
</region>

<region>
end=120000
hivel=24
interval_point=75264
key=F#2
lovel=24
post_interval_tune=-7
pre_interval_tune=-13
sample=Basses_Mmm_slurred_legato_PP_F#2_-12.opus
</region>

<region>
end=132799
hivel=1
interval_point=76288
key=F#2
lovel=1
post_interval_tune=-10
pre_interval_tune=-3
sample=Basses_Mmm_slurred_legato_PP_F#2_+1.opus
</region>

<region>
end=132799
hivel=2
interval_point=80896
key=F#2
lovel=2
post_interval_tune=-20
pre_interval_tune=-1
sample=Basses_Mmm_slurred_legato_PP_F#2_+2.opus
</region>

<region>
end=132799
hivel=3
interval_point=80384
key=F#2
lovel=3
post_interval_tune=-31
pre_interval_tune=-1
sample=Basses_Mmm_slurred_legato_PP_F#2_+3.opus
</region>

<region>
end=132799
hivel=4
interval_point=74752
key=F#2
lovel=4
post_interval_tune=-18
pre_interval_tune=+20
sample=Basses_Mmm_slurred_legato_PP_F#2_+4.opus
</region>

<region>
end=132799
hivel=5
interval_point=77824
key=F#2
lovel=5
post_interval_tune=-28
pre_interval_tune=+6
sample=Basses_Mmm_slurred_legato_PP_F#2_+5.opus
</region>

<region>
end=132799
hivel=6
interval_point=76800
key=F#2
lovel=6
post_interval_tune=-18
pre_interval_tune=+1
sample=Basses_Mmm_slurred_legato_PP_F#2_+6.opus
</region>

<region>
end=132799
hivel=7
interval_point=75776
key=F#2
lovel=7
post_interval_tune=-22
pre_interval_tune=-1
sample=Basses_Mmm_slurred_legato_PP_F#2_+7.opus
</region>

<region>
end=132799
hivel=8
interval_point=74240
key=F#2
lovel=8
post_interval_tune=-14
pre_interval_tune=-4
sample=Basses_Mmm_slurred_legato_PP_F#2_+8.opus
</region>

<region>
end=132799
hivel=9
interval_point=72192
key=F#2
lovel=9
post_interval_tune=-14
pre_interval_tune=-3
sample=Basses_Mmm_slurred_legato_PP_F#2_+9.opus
</region>

<region>
end=132799
hivel=10
interval_point=74240
key=F#2
lovel=10
post_interval_tune=-9
pre_interval_tune=+6
sample=Basses_Mmm_slurred_legato_PP_F#2_+10.opus
</region>

<region>
end=132799
hivel=11
interval_point=80384
key=F#2
lovel=11
post_interval_tune=-9
pre_interval_tune=-12
sample=Basses_Mmm_slurred_legato_PP_F#2_+11.opus
</region>

<region>
end=132799
hivel=12
interval_point=68096
key=F#2
lovel=12
post_interval_tune=-15
pre_interval_tune=-7
sample=Basses_Mmm_slurred_legato_PP_F#2_+12.opus
</region>

<region>
end=120000
hivel=13
interval_point=71680
key=F#3
lovel=13
post_interval_tune=-21
pre_interval_tune=-12
sample=Basses_Mmm_slurred_legato_PP_F#3_-1.opus
</region>

<region>
end=120000
hivel=14
interval_point=65024
key=F#3
lovel=14
post_interval_tune=-22
pre_interval_tune=-20
sample=Basses_Mmm_slurred_legato_PP_F#3_-2.opus
</region>

<region>
end=120000
hivel=15
interval_point=80896
key=F#3
lovel=15
post_interval_tune=-20
pre_interval_tune=-35
sample=Basses_Mmm_slurred_legato_PP_F#3_-3.opus
</region>

<region>
end=120000
hivel=16
interval_point=70656
key=F#3
lovel=16
post_interval_tune=-24
pre_interval_tune=-28
sample=Basses_Mmm_slurred_legato_PP_F#3_-4.opus
</region>

<region>
end=120000
hivel=17
interval_point=73728
key=F#3
lovel=17
post_interval_tune=-31
pre_interval_tune=-19
sample=Basses_Mmm_slurred_legato_PP_F#3_-5.opus
</region>

<region>
end=120000
hivel=18
interval_point=70144
key=F#3
lovel=18
post_interval_tune=-22
pre_interval_tune=-26
sample=Basses_Mmm_slurred_legato_PP_F#3_-6.opus
</region>

<region>
end=120000
hivel=19
interval_point=71168
key=F#3
lovel=19
post_interval_tune=-14
pre_interval_tune=-15
sample=Basses_Mmm_slurred_legato_PP_F#3_-7.opus
</region>

<region>
end=120000
hivel=20
interval_point=70144
key=F#3
lovel=20
post_interval_tune=-23
pre_interval_tune=-20
sample=Basses_Mmm_slurred_legato_PP_F#3_-8.opus
</region>

<region>
end=120000
hivel=21
interval_point=72704
key=F#3
lovel=21
post_interval_tune=-21
pre_interval_tune=-15
sample=Basses_Mmm_slurred_legato_PP_F#3_-9.opus
</region>

<region>
end=120000
hivel=22
interval_point=70144
key=F#3
lovel=22
post_interval_tune=-30
pre_interval_tune=-9
sample=Basses_Mmm_slurred_legato_PP_F#3_-10.opus
</region>

<region>
end=132799
hivel=1
interval_point=73216
key=F#3
lovel=1
post_interval_tune=-13
pre_interval_tune=-13
sample=Basses_Mmm_slurred_legato_PP_F#3_+1.opus
</region>

<region>
end=132799
hivel=2
interval_point=73728
key=F#3
lovel=2
post_interval_tune=-13
pre_interval_tune=-22
sample=Basses_Mmm_slurred_legato_PP_F#3_+2.opus
</region>

<region>
end=132799
hivel=3
interval_point=75264
key=F#3
lovel=3
post_interval_tune=-45
pre_interval_tune=-12
sample=Basses_Mmm_slurred_legato_PP_F#3_+3.opus
</region>

<region>
end=132799
hivel=4
interval_point=71168
key=F#3
lovel=4
post_interval_tune=-32
pre_interval_tune=-21
sample=Basses_Mmm_slurred_legato_PP_F#3_+4.opus
</region>

<region>
end=132799
hivel=5
interval_point=73728
key=F#3
lovel=5
post_interval_tune=-23
pre_interval_tune=-27
sample=Basses_Mmm_slurred_legato_PP_F#3_+5.opus
</region>

<region>
end=132799
hivel=6
interval_point=75264
key=F#3
lovel=6
post_interval_tune=-25
pre_interval_tune=-19
sample=Basses_Mmm_slurred_legato_PP_F#3_+6.opus
</region>

<region>
end=132799
hivel=7
interval_point=79360
key=F#3
lovel=7
post_interval_tune=-23
pre_interval_tune=-26
sample=Basses_Mmm_slurred_legato_PP_F#3_+7.opus
</region>

<region>
end=132799
hivel=8
interval_point=72192
key=F#3
lovel=8
post_interval_tune=-24
pre_interval_tune=-15
sample=Basses_Mmm_slurred_legato_PP_F#3_+8.opus
</region>

<region>
end=132154
hivel=9
interval_point=84480
key=F#3
lovel=9
post_interval_tune=-12
pre_interval_tune=-1
sample=Basses_Mmm_slurred_legato_PP_F#3_+9.opus
</region>

<region>
end=132799
hivel=10
interval_point=76288
key=F#3
lovel=10
post_interval_tune=+4
pre_interval_tune=-27
sample=Basses_Mmm_slurred_legato_PP_F#3_+10.opus
</region>

<region>
end=120000
hivel=13
interval_point=70656
key=F2
lovel=13
post_interval_tune=-19
pre_interval_tune=-19
sample=Basses_Mmm_slurred_legato_PP_F2_-1.opus
</region>

<region>
end=120000
hivel=14
interval_point=72192
key=F2
lovel=14
post_interval_tune=+9
pre_interval_tune=-9
sample=Basses_Mmm_slurred_legato_PP_F2_-2.opus
</region>

<region>
end=120000
hivel=15
interval_point=72192
key=F2
lovel=15
post_interval_tune=-4
pre_interval_tune=-15
sample=Basses_Mmm_slurred_legato_PP_F2_-3.opus
</region>

<region>
end=120000
hivel=16
interval_point=68608
key=F2
lovel=16
post_interval_tune=+13
pre_interval_tune=-29
sample=Basses_Mmm_slurred_legato_PP_F2_-4.opus
</region>

<region>
end=120000
hivel=17
interval_point=79360
key=F2
lovel=17
post_interval_tune=-1
pre_interval_tune=-19
sample=Basses_Mmm_slurred_legato_PP_F2_-5.opus
</region>

<region>
end=120000
hivel=18
interval_point=72192
key=F2
lovel=18
post_interval_tune=+30
pre_interval_tune=-7
sample=Basses_Mmm_slurred_legato_PP_F2_-6.opus
</region>

<region>
end=120000
hivel=19
interval_point=79360
key=F2
lovel=19
post_interval_tune=+5
pre_interval_tune=-14
sample=Basses_Mmm_slurred_legato_PP_F2_-7.opus
</region>

<region>
end=120000
hivel=20
interval_point=76800
key=F2
lovel=20
post_interval_tune=-23
pre_interval_tune=+6
sample=Basses_Mmm_slurred_legato_PP_F2_-8.opus
</region>

<region>
end=120000
hivel=21
interval_point=68608
key=F2
lovel=21
post_interval_tune=-8
pre_interval_tune=+4
sample=Basses_Mmm_slurred_legato_PP_F2_-9.opus
</region>

<region>
end=120000
hivel=22
interval_point=70656
key=F2
lovel=22
post_interval_tune=-1
pre_interval_tune=-19
sample=Basses_Mmm_slurred_legato_PP_F2_-10.opus
</region>

<region>
end=120000
hivel=23
interval_point=72192
key=F2
lovel=23
post_interval_tune=+15
pre_interval_tune=-8
sample=Basses_Mmm_slurred_legato_PP_F2_-11.opus
</region>

<region>
end=120000
hivel=24
interval_point=69632
key=F2
lovel=24
post_interval_tune=-4
pre_interval_tune=-21
sample=Basses_Mmm_slurred_legato_PP_F2_-12.opus
</region>

<region>
end=132799
hivel=1
interval_point=73728
key=F2
lovel=1
post_interval_tune=-17
pre_interval_tune=-7
sample=Basses_Mmm_slurred_legato_PP_F2_+1.opus
</region>

<region>
end=132799
hivel=2
interval_point=73728
key=F2
lovel=2
post_interval_tune=-7
pre_interval_tune=+12
sample=Basses_Mmm_slurred_legato_PP_F2_+2.opus
</region>

<region>
end=132799
hivel=3
interval_point=77312
key=F2
lovel=3
post_interval_tune=-8
pre_interval_tune=+10
sample=Basses_Mmm_slurred_legato_PP_F2_+3.opus
</region>

<region>
end=132799
hivel=4
interval_point=73728
key=F2
lovel=4
post_interval_tune=-34
pre_interval_tune=+1
sample=Basses_Mmm_slurred_legato_PP_F2_+4.opus
</region>

<region>
end=132799
hivel=5
interval_point=75264
key=F2
lovel=5
post_interval_tune=-22
pre_interval_tune=+6
sample=Basses_Mmm_slurred_legato_PP_F2_+5.opus
</region>

<region>
end=132799
hivel=6
interval_point=72192
key=F2
lovel=6
post_interval_tune=-23
pre_interval_tune=+8
sample=Basses_Mmm_slurred_legato_PP_F2_+6.opus
</region>

<region>
end=132799
hivel=7
interval_point=71168
key=F2
lovel=7
post_interval_tune=-18
pre_interval_tune=+30
sample=Basses_Mmm_slurred_legato_PP_F2_+7.opus
</region>

<region>
end=132799
hivel=8
interval_point=73216
key=F2
lovel=8
post_interval_tune=+7
pre_interval_tune=-2
sample=Basses_Mmm_slurred_legato_PP_F2_+8.opus
</region>

<region>
end=132799
hivel=9
interval_point=73216
key=F2
lovel=9
post_interval_tune=-6
pre_interval_tune=+7
sample=Basses_Mmm_slurred_legato_PP_F2_+9.opus
</region>

<region>
end=132799
hivel=10
interval_point=72192
key=F2
lovel=10
post_interval_tune=-7
pre_interval_tune=+12
sample=Basses_Mmm_slurred_legato_PP_F2_+10.opus
</region>

<region>
end=132799
hivel=11
interval_point=76800
key=F2
lovel=11
post_interval_tune=-15
pre_interval_tune=+9
sample=Basses_Mmm_slurred_legato_PP_F2_+11.opus
</region>

<region>
end=132799
hivel=12
interval_point=80896
key=F2
lovel=12
post_interval_tune=-20
pre_interval_tune=+8
sample=Basses_Mmm_slurred_legato_PP_F2_+12.opus
</region>

<region>
end=120000
hivel=13
interval_point=67072
key=F3
lovel=13
post_interval_tune=-41
pre_interval_tune=-24
sample=Basses_Mmm_slurred_legato_PP_F3_-1.opus
</region>

<region>
end=120000
hivel=14
interval_point=68096
key=F3
lovel=14
post_interval_tune=-40
pre_interval_tune=-3
sample=Basses_Mmm_slurred_legato_PP_F3_-2.opus
</region>

<region>
end=120000
hivel=15
interval_point=76288
key=F3
lovel=15
post_interval_tune=-37
pre_interval_tune=-23
sample=Basses_Mmm_slurred_legato_PP_F3_-3.opus
</region>

<region>
end=120000
hivel=16
interval_point=64000
key=F3
lovel=16
post_interval_tune=-39
pre_interval_tune=-24
sample=Basses_Mmm_slurred_legato_PP_F3_-4.opus
</region>

<region>
end=120000
hivel=17
interval_point=76800
key=F3
lovel=17
post_interval_tune=-34
pre_interval_tune=-10
sample=Basses_Mmm_slurred_legato_PP_F3_-5.opus
</region>

<region>
end=120000
hivel=18
interval_point=78336
key=F3
lovel=18
post_interval_tune=-41
pre_interval_tune=-10
sample=Basses_Mmm_slurred_legato_PP_F3_-6.opus
</region>

<region>
end=120000
hivel=19
interval_point=73728
key=F3
lovel=19
post_interval_tune=-27
pre_interval_tune=-9
sample=Basses_Mmm_slurred_legato_PP_F3_-7.opus
</region>

<region>
end=120000
hivel=20
interval_point=65536
key=F3
lovel=20
post_interval_tune=-28
pre_interval_tune=-13
sample=Basses_Mmm_slurred_legato_PP_F3_-8.opus
</region>

<region>
end=120000
hivel=21
interval_point=74240
key=F3
lovel=21
post_interval_tune=-28
pre_interval_tune=-20
sample=Basses_Mmm_slurred_legato_PP_F3_-9.opus
</region>

<region>
end=120000
hivel=22
interval_point=64512
key=F3
lovel=22
post_interval_tune=-43
pre_interval_tune=-21
sample=Basses_Mmm_slurred_legato_PP_F3_-10.opus
</region>

<region>
end=120000
hivel=23
interval_point=70144
key=F3
lovel=23
post_interval_tune=-42
pre_interval_tune=-22
sample=Basses_Mmm_slurred_legato_PP_F3_-11.opus
</region>

<region>
end=132799
hivel=1
interval_point=76800
key=F3
lovel=1
post_interval_tune=-18
pre_interval_tune=-16
sample=Basses_Mmm_slurred_legato_PP_F3_+1.opus
</region>

<region>
end=132799
hivel=2
interval_point=69632
key=F3
lovel=2
post_interval_tune=-19
pre_interval_tune=-12
sample=Basses_Mmm_slurred_legato_PP_F3_+2.opus
</region>

<region>
end=132799
hivel=3
interval_point=74752
key=F3
lovel=3
post_interval_tune=-32
pre_interval_tune=-15
sample=Basses_Mmm_slurred_legato_PP_F3_+3.opus
</region>

<region>
end=132799
hivel=4
interval_point=71168
key=F3
lovel=4
post_interval_tune=-26
pre_interval_tune=-9
sample=Basses_Mmm_slurred_legato_PP_F3_+4.opus
</region>

<region>
end=132799
hivel=5
interval_point=70144
key=F3
lovel=5
post_interval_tune=-21
pre_interval_tune=-17
sample=Basses_Mmm_slurred_legato_PP_F3_+5.opus
</region>

<region>
end=132799
hivel=6
interval_point=71680
key=F3
lovel=6
post_interval_tune=-17
pre_interval_tune=-24
sample=Basses_Mmm_slurred_legato_PP_F3_+6.opus
</region>

<region>
end=132799
hivel=7
interval_point=68608
key=F3
lovel=7
post_interval_tune=-7
pre_interval_tune=-30
sample=Basses_Mmm_slurred_legato_PP_F3_+7.opus
</region>

<region>
end=132799
hivel=8
interval_point=72704
key=F3
lovel=8
post_interval_tune=+5
pre_interval_tune=-17
sample=Basses_Mmm_slurred_legato_PP_F3_+8.opus
</region>

<region>
end=135199
hivel=9
interval_point=75264
key=F3
lovel=9
post_interval_tune=-23
pre_interval_tune=-26
sample=Basses_Mmm_slurred_legato_PP_F3_+9.opus
</region>

<region>
end=135199
hivel=10
interval_point=77824
key=F3
lovel=10
post_interval_tune=-15
pre_interval_tune=-27
sample=Basses_Mmm_slurred_legato_PP_F3_+10.opus
</region>

<region>
end=135199
hivel=11
interval_point=76800
key=F3
lovel=11
post_interval_tune=-19
pre_interval_tune=-15
sample=Basses_Mmm_slurred_legato_PP_F3_+11.opus
</region>

<region>
end=120000
hivel=13
interval_point=66560
key=G#2
lovel=13
post_interval_tune=-28
pre_interval_tune=-24
sample=Basses_Mmm_slurred_legato_PP_G#2_-1.opus
</region>

<region>
end=120000
hivel=14
interval_point=74752
key=G#2
lovel=14
post_interval_tune=-19
pre_interval_tune=-18
sample=Basses_Mmm_slurred_legato_PP_G#2_-2.opus
</region>

<region>
end=120000
hivel=15
interval_point=76800
key=G#2
lovel=15
post_interval_tune=-7
pre_interval_tune=-15
sample=Basses_Mmm_slurred_legato_PP_G#2_-3.opus
</region>

<region>
end=120000
hivel=16
interval_point=71680
key=G#2
lovel=16
post_interval_tune=-8
pre_interval_tune=-23
sample=Basses_Mmm_slurred_legato_PP_G#2_-4.opus
</region>

<region>
end=120000
hivel=17
interval_point=68608
key=G#2
lovel=17
post_interval_tune=-17
pre_interval_tune=-24
sample=Basses_Mmm_slurred_legato_PP_G#2_-5.opus
</region>

<region>
end=120000
hivel=18
interval_point=79872
key=G#2
lovel=18
post_interval_tune=-11
pre_interval_tune=-28
sample=Basses_Mmm_slurred_legato_PP_G#2_-6.opus
</region>

<region>
end=120000
hivel=19
interval_point=67584
key=G#2
lovel=19
post_interval_tune=-16
pre_interval_tune=-24
sample=Basses_Mmm_slurred_legato_PP_G#2_-7.opus
</region>

<region>
end=120000
hivel=20
interval_point=71168
key=G#2
lovel=20
post_interval_tune=-20
pre_interval_tune=-20
sample=Basses_Mmm_slurred_legato_PP_G#2_-8.opus
</region>

<region>
end=120000
hivel=21
interval_point=73728
key=G#2
lovel=21
post_interval_tune=-14
pre_interval_tune=-20
sample=Basses_Mmm_slurred_legato_PP_G#2_-9.opus
</region>

<region>
end=120000
hivel=22
interval_point=68608
key=G#2
lovel=22
post_interval_tune=-12
pre_interval_tune=-20
sample=Basses_Mmm_slurred_legato_PP_G#2_-10.opus
</region>

<region>
end=120000
hivel=23
interval_point=63488
key=G#2
lovel=23
post_interval_tune=-1
pre_interval_tune=-28
sample=Basses_Mmm_slurred_legato_PP_G#2_-11.opus
</region>

<region>
end=120000
hivel=24
interval_point=66560
key=G#2
lovel=24
post_interval_tune=-9
pre_interval_tune=-30
sample=Basses_Mmm_slurred_legato_PP_G#2_-12.opus
</region>

<region>
end=132799
hivel=1
interval_point=74752
key=G#2
lovel=1
post_interval_tune=-22
pre_interval_tune=-14
sample=Basses_Mmm_slurred_legato_PP_G#2_+1.opus
</region>

<region>
end=132799
hivel=2
interval_point=71680
key=G#2
lovel=2
post_interval_tune=-23
pre_interval_tune=0
sample=Basses_Mmm_slurred_legato_PP_G#2_+2.opus
</region>

<region>
end=132799
hivel=3
interval_point=73728
key=G#2
lovel=3
post_interval_tune=-18
pre_interval_tune=-12
sample=Basses_Mmm_slurred_legato_PP_G#2_+3.opus
</region>

<region>
end=132799
hivel=4
interval_point=74752
key=G#2
lovel=4
post_interval_tune=-18
pre_interval_tune=-1
sample=Basses_Mmm_slurred_legato_PP_G#2_+4.opus
</region>

<region>
end=132799
hivel=5
interval_point=74240
key=G#2
lovel=5
post_interval_tune=-17
pre_interval_tune=-9
sample=Basses_Mmm_slurred_legato_PP_G#2_+5.opus
</region>

<region>
end=132799
hivel=6
interval_point=75264
key=G#2
lovel=6
post_interval_tune=-32
pre_interval_tune=0
sample=Basses_Mmm_slurred_legato_PP_G#2_+6.opus
</region>

<region>
end=132799
hivel=7
interval_point=72192
key=G#2
lovel=7
post_interval_tune=-20
pre_interval_tune=+6
sample=Basses_Mmm_slurred_legato_PP_G#2_+7.opus
</region>

<region>
end=132799
hivel=8
interval_point=78336
key=G#2
lovel=8
post_interval_tune=-9
pre_interval_tune=-2
sample=Basses_Mmm_slurred_legato_PP_G#2_+8.opus
</region>

<region>
end=132799
hivel=9
interval_point=77312
key=G#2
lovel=9
post_interval_tune=-21
pre_interval_tune=-14
sample=Basses_Mmm_slurred_legato_PP_G#2_+9.opus
</region>

<region>
end=132799
hivel=10
interval_point=79360
key=G#2
lovel=10
post_interval_tune=-12
pre_interval_tune=-5
sample=Basses_Mmm_slurred_legato_PP_G#2_+10.opus
</region>

<region>
end=132799
hivel=11
interval_point=78336
key=G#2
lovel=11
post_interval_tune=-27
pre_interval_tune=-13
sample=Basses_Mmm_slurred_legato_PP_G#2_+11.opus
</region>

<region>
end=132799
hivel=12
interval_point=76800
key=G#2
lovel=12
post_interval_tune=-31
pre_interval_tune=-11
sample=Basses_Mmm_slurred_legato_PP_G#2_+12.opus
</region>

<region>
end=120000
hivel=13
interval_point=75776
key=G#3
lovel=13
post_interval_tune=-31
pre_interval_tune=-28
sample=Basses_Mmm_slurred_legato_PP_G#3_-1.opus
</region>

<region>
end=120000
hivel=14
interval_point=71680
key=G#3
lovel=14
post_interval_tune=-30
pre_interval_tune=-27
sample=Basses_Mmm_slurred_legato_PP_G#3_-2.opus
</region>

<region>
end=120000
hivel=15
interval_point=76288
key=G#3
lovel=15
post_interval_tune=-23
pre_interval_tune=-12
sample=Basses_Mmm_slurred_legato_PP_G#3_-3.opus
</region>

<region>
end=120000
hivel=16
interval_point=70656
key=G#3
lovel=16
post_interval_tune=-20
pre_interval_tune=-17
sample=Basses_Mmm_slurred_legato_PP_G#3_-4.opus
</region>

<region>
end=120000
hivel=17
interval_point=70656
key=G#3
lovel=17
post_interval_tune=-26
pre_interval_tune=-11
sample=Basses_Mmm_slurred_legato_PP_G#3_-5.opus
</region>

<region>
end=120000
hivel=18
interval_point=71680
key=G#3
lovel=18
post_interval_tune=-16
pre_interval_tune=-11
sample=Basses_Mmm_slurred_legato_PP_G#3_-6.opus
</region>

<region>
end=120000
hivel=19
interval_point=69120
key=G#3
lovel=19
post_interval_tune=-19
pre_interval_tune=-20
sample=Basses_Mmm_slurred_legato_PP_G#3_-7.opus
</region>

<region>
end=120000
hivel=20
interval_point=69120
key=G#3
lovel=20
post_interval_tune=-28
pre_interval_tune=-17
sample=Basses_Mmm_slurred_legato_PP_G#3_-8.opus
</region>

<region>
end=132799
hivel=1
interval_point=76288
key=G#3
lovel=1
post_interval_tune=-16
pre_interval_tune=-23
sample=Basses_Mmm_slurred_legato_PP_G#3_+1.opus
</region>

<region>
end=132799
hivel=2
interval_point=72192
key=G#3
lovel=2
post_interval_tune=-30
pre_interval_tune=-20
sample=Basses_Mmm_slurred_legato_PP_G#3_+2.opus
</region>

<region>
end=132799
hivel=3
interval_point=70144
key=G#3
lovel=3
post_interval_tune=-19
pre_interval_tune=-13
sample=Basses_Mmm_slurred_legato_PP_G#3_+3.opus
</region>

<region>
end=132799
hivel=4
interval_point=72192
key=G#3
lovel=4
post_interval_tune=-15
pre_interval_tune=-12
sample=Basses_Mmm_slurred_legato_PP_G#3_+4.opus
</region>

<region>
end=132799
hivel=5
interval_point=72192
key=G#3
lovel=5
post_interval_tune=-2
pre_interval_tune=-22
sample=Basses_Mmm_slurred_legato_PP_G#3_+5.opus
</region>

<region>
end=132799
hivel=6
interval_point=75264
key=G#3
lovel=6
post_interval_tune=-14
pre_interval_tune=-20
sample=Basses_Mmm_slurred_legato_PP_G#3_+6.opus
</region>

<region>
end=132799
hivel=7
interval_point=73728
key=G#3
lovel=7
post_interval_tune=-28
pre_interval_tune=-13
sample=Basses_Mmm_slurred_legato_PP_G#3_+7.opus
</region>

<region>
end=132799
hivel=8
interval_point=73728
key=G#3
lovel=8
post_interval_tune=-16
pre_interval_tune=-24
sample=Basses_Mmm_slurred_legato_PP_G#3_+8.opus
</region>

<region>
end=120000
hivel=13
interval_point=72192
key=G2
lovel=13
post_interval_tune=-4
pre_interval_tune=-10
sample=Basses_Mmm_slurred_legato_PP_G2_-1.opus
</region>

<region>
end=120000
hivel=14
interval_point=77312
key=G2
lovel=14
post_interval_tune=+4
pre_interval_tune=-21
sample=Basses_Mmm_slurred_legato_PP_G2_-2.opus
</region>

<region>
end=120000
hivel=15
interval_point=77312
key=G2
lovel=15
post_interval_tune=+7
pre_interval_tune=-13
sample=Basses_Mmm_slurred_legato_PP_G2_-3.opus
</region>

<region>
end=120000
hivel=16
interval_point=73216
key=G2
lovel=16
post_interval_tune=+9
pre_interval_tune=-2
sample=Basses_Mmm_slurred_legato_PP_G2_-4.opus
</region>

<region>
end=120000
hivel=17
interval_point=75264
key=G2
lovel=17
post_interval_tune=+2
pre_interval_tune=+6
sample=Basses_Mmm_slurred_legato_PP_G2_-5.opus
</region>

<region>
end=120000
hivel=18
interval_point=72704
key=G2
lovel=18
post_interval_tune=-2
pre_interval_tune=-8
sample=Basses_Mmm_slurred_legato_PP_G2_-6.opus
</region>

<region>
end=120000
hivel=19
interval_point=73728
key=G2
lovel=19
post_interval_tune=+5
pre_interval_tune=-15
sample=Basses_Mmm_slurred_legato_PP_G2_-7.opus
</region>

<region>
end=120000
hivel=20
interval_point=72192
key=G2
lovel=20
post_interval_tune=+5
pre_interval_tune=-27
sample=Basses_Mmm_slurred_legato_PP_G2_-8.opus
</region>

<region>
end=120000
hivel=21
interval_point=70144
key=G2
lovel=21
post_interval_tune=+2
pre_interval_tune=-10
sample=Basses_Mmm_slurred_legato_PP_G2_-9.opus
</region>

<region>
end=120000
hivel=22
interval_point=69632
key=G2
lovel=22
post_interval_tune=-1
pre_interval_tune=-14
sample=Basses_Mmm_slurred_legato_PP_G2_-10.opus
</region>

<region>
end=120000
hivel=23
interval_point=72704
key=G2
lovel=23
post_interval_tune=-11
pre_interval_tune=-17
sample=Basses_Mmm_slurred_legato_PP_G2_-11.opus
</region>

<region>
end=120000
hivel=24
interval_point=69120
key=G2
lovel=24
post_interval_tune=-9
pre_interval_tune=-27
sample=Basses_Mmm_slurred_legato_PP_G2_-12.opus
</region>

<region>
end=132799
hivel=1
interval_point=73728
key=G2
lovel=1
post_interval_tune=-12
pre_interval_tune=-3
sample=Basses_Mmm_slurred_legato_PP_G2_+1.opus
</region>

<region>
end=132799
hivel=2
interval_point=73728
key=G2
lovel=2
post_interval_tune=-14
pre_interval_tune=+8
sample=Basses_Mmm_slurred_legato_PP_G2_+2.opus
</region>

<region>
end=132799
hivel=3
interval_point=76288
key=G2
lovel=3
post_interval_tune=-13
pre_interval_tune=+10
sample=Basses_Mmm_slurred_legato_PP_G2_+3.opus
</region>

<region>
end=132799
hivel=4
interval_point=74752
key=G2
lovel=4
post_interval_tune=+4
pre_interval_tune=+19
sample=Basses_Mmm_slurred_legato_PP_G2_+4.opus
</region>

<region>
end=132799
hivel=5
interval_point=74240
key=G2
lovel=5
post_interval_tune=+10
pre_interval_tune=+15
sample=Basses_Mmm_slurred_legato_PP_G2_+5.opus
</region>

<region>
end=132799
hivel=6
interval_point=71168
key=G2
lovel=6
post_interval_tune=-12
pre_interval_tune=+11
sample=Basses_Mmm_slurred_legato_PP_G2_+6.opus
</region>

<region>
end=132799
hivel=7
interval_point=74752
key=G2
lovel=7
post_interval_tune=-16
pre_interval_tune=+3
sample=Basses_Mmm_slurred_legato_PP_G2_+7.opus
</region>

<region>
end=132799
hivel=8
interval_point=76800
key=G2
lovel=8
post_interval_tune=-17
pre_interval_tune=+11
sample=Basses_Mmm_slurred_legato_PP_G2_+8.opus
</region>

<region>
end=132799
hivel=9
interval_point=79360
key=G2
lovel=9
post_interval_tune=-1
pre_interval_tune=+19
sample=Basses_Mmm_slurred_legato_PP_G2_+9.opus
</region>

<region>
end=132799
hivel=10
interval_point=73216
key=G2
lovel=10
post_interval_tune=-7
pre_interval_tune=+1
sample=Basses_Mmm_slurred_legato_PP_G2_+10.opus
</region>

<region>
end=132799
hivel=11
interval_point=75776
key=G2
lovel=11
post_interval_tune=-14
pre_interval_tune=+8
sample=Basses_Mmm_slurred_legato_PP_G2_+11.opus
</region>

<region>
end=132799
hivel=12
interval_point=74752
key=G2
lovel=12
post_interval_tune=-20
pre_interval_tune=+9
sample=Basses_Mmm_slurred_legato_PP_G2_+12.opus
</region>

<region>
end=120000
hivel=13
interval_point=68608
key=G3
lovel=13
post_interval_tune=-30
pre_interval_tune=-24
sample=Basses_Mmm_slurred_legato_PP_G3_-1.opus
</region>

<region>
end=120000
hivel=14
interval_point=68608
key=G3
lovel=14
post_interval_tune=-23
pre_interval_tune=-33
sample=Basses_Mmm_slurred_legato_PP_G3_-2.opus
</region>

<region>
end=120000
hivel=15
interval_point=74752
key=G3
lovel=15
post_interval_tune=-37
pre_interval_tune=-15
sample=Basses_Mmm_slurred_legato_PP_G3_-3.opus
</region>

<region>
end=120000
hivel=16
interval_point=70656
key=G3
lovel=16
post_interval_tune=-36
pre_interval_tune=-12
sample=Basses_Mmm_slurred_legato_PP_G3_-4.opus
</region>

<region>
end=120000
hivel=17
interval_point=70656
key=G3
lovel=17
post_interval_tune=-25
pre_interval_tune=-13
sample=Basses_Mmm_slurred_legato_PP_G3_-5.opus
</region>

<region>
end=120000
hivel=18
interval_point=74240
key=G3
lovel=18
post_interval_tune=-27
pre_interval_tune=-20
sample=Basses_Mmm_slurred_legato_PP_G3_-6.opus
</region>

<region>
end=120000
hivel=19
interval_point=70656
key=G3
lovel=19
post_interval_tune=-16
pre_interval_tune=-16
sample=Basses_Mmm_slurred_legato_PP_G3_-7.opus
</region>

<region>
end=120000
hivel=20
interval_point=69632
key=G3
lovel=20
post_interval_tune=-20
pre_interval_tune=-19
sample=Basses_Mmm_slurred_legato_PP_G3_-8.opus
</region>

<region>
end=120000
hivel=21
interval_point=67072
key=G3
lovel=21
post_interval_tune=-20
pre_interval_tune=-16
sample=Basses_Mmm_slurred_legato_PP_G3_-9.opus
</region>

<region>
end=132799
hivel=1
interval_point=72192
key=G3
lovel=1
post_interval_tune=-16
pre_interval_tune=-19
sample=Basses_Mmm_slurred_legato_PP_G3_+1.opus
</region>

<region>
end=132799
hivel=2
interval_point=74240
key=G3
lovel=2
post_interval_tune=-38
pre_interval_tune=-13
sample=Basses_Mmm_slurred_legato_PP_G3_+2.opus
</region>

<region>
end=132799
hivel=3
interval_point=70656
key=G3
lovel=3
post_interval_tune=-26
pre_interval_tune=-23
sample=Basses_Mmm_slurred_legato_PP_G3_+3.opus
</region>

<region>
end=132799
hivel=4
interval_point=75776
key=G3
lovel=4
post_interval_tune=-22
pre_interval_tune=-25
sample=Basses_Mmm_slurred_legato_PP_G3_+4.opus
</region>

<region>
end=132799
hivel=5
interval_point=69120
key=G3
lovel=5
post_interval_tune=-6
pre_interval_tune=-30
sample=Basses_Mmm_slurred_legato_PP_G3_+5.opus
</region>

<region>
end=131418
hivel=6
interval_point=71680
key=G3
lovel=6
post_interval_tune=-33
pre_interval_tune=-33
sample=Basses_Mmm_slurred_legato_PP_G3_+6.opus
</region>

<region>
end=132799
hivel=7
interval_point=72192
key=G3
lovel=7
post_interval_tune=-23
pre_interval_tune=-23
sample=Basses_Mmm_slurred_legato_PP_G3_+7.opus
</region>

<region>
end=132799
hivel=8
interval_point=72704
key=G3
lovel=8
post_interval_tune=-8
pre_interval_tune=-14
sample=Basses_Mmm_slurred_legato_PP_G3_+8.opus
</region>

<region>
end=132799
hivel=9
interval_point=72704
key=G3
lovel=9
post_interval_tune=-17
pre_interval_tune=-17
sample=Basses_Mmm_slurred_legato_PP_G3_+9.opus
</region>
</group>